<?xml version="1.0" encoding="UTF-8" standalone="no"?>
<!-- Generator: Adobe Illustrator 18.0.0, SVG Export Plug-In . SVG Version: 6.00 Build 0)  -->
<!DOCTYPE svg  PUBLIC '-//W3C//DTD SVG 1.1//EN'  'http://www.w3.org/Graphics/SVG/1.1/DTD/svg11.dtd'>
<svg id="Layer_1" xmlns="http://www.w3.org/2000/svg" xml:space="preserve" viewBox="0 0 500 500" version="1.1" y="0px" x="0px" xmlns:xlink="http://www.w3.org/1999/xlink" enable-background="new 0 0 500 500">
<g opacity=".1">
	<path d="m227.9 73v19.7c-39.1 23.9-64.6 46.3-76.6 67.3s-19.1 43.4-21.5 67.3c32.3 4 55.3 16.5 69.1 37.7 13.8 21.1 20.6 41.6 20.6 61.6 0 26.3-9.6 49.6-29 70-19.3 20.3-44.3 30.5-75 30.5-31.9 0-58.5-12.3-79.8-36.8s-32-53.1-32-85.8c0-35.9 10.4-70.4 31.1-103.5s48.3-60.9 82.8-83.4c34.4-22.6 71.2-37.4 110.3-44.6zm268.5 0v19.7c-38.7 23.5-64.1 45.8-76.3 67-12.2 21.1-19.4 43.7-21.8 67.6 31.9 4 54.7 16.5 68.5 37.7 13.8 21.1 20.6 41.6 20.6 61.6 0 26.3-9.6 49.6-29 70-19.4 20.2-44.4 30.4-75.1 30.4-31.5 0-57.9-12.3-79.2-36.8s-32-53.1-32-85.8c0-36.7 10.2-71.3 30.5-103.8 20.4-32.5 47.6-60.1 81.9-82.8s71.6-37.6 111.9-44.8z"/>
</g>
</svg>
