<?xml version="1.0" encoding="UTF-8" standalone="no"?>
<!-- Generator: Adobe Illustrator 18.0.0, SVG Export Plug-In . SVG Version: 6.00 Build 0)  -->
<!DOCTYPE svg  PUBLIC '-//W3C//DTD SVG 1.1//EN'  'http://www.w3.org/Graphics/SVG/1.1/DTD/svg11.dtd'>
<svg id="Layer_1" xmlns="http://www.w3.org/2000/svg" xml:space="preserve" viewBox="0 0 500 500" version="1.1" y="0px" x="0px" xmlns:xlink="http://www.w3.org/1999/xlink" enable-background="new 0 0 500 500">
	<defs>
		<path id="SVGID_1_" d="m250 4.3c135.1 0 244.6 110 244.6 245.7s-109.5 245.7-244.6 245.7-244.6-110-244.6-245.7c0-135.7 109.5-245.7 244.6-245.7z"/>
	</defs>
	<clipPath id="SVGID_2_">
		<use overflow="visible" xlink:href="#SVGID_1_"/>
	</clipPath>
	<path fill="#006AD1" fill-rule="evenodd" clip-rule="evenodd" d="m250 4.3c135.1 0 244.6 110 244.6 245.7s-109.5 245.7-244.6 245.7-244.6-110-244.6-245.7c0-135.7 109.5-245.7 244.6-245.7z" clip-path="url(#SVGID_2_)"/>
	<path opacity=".25" fill-rule="evenodd" clip-rule="evenodd" d="m451.8 691.4l-308.8-307.2 188.5-287.8 289.3 287.8-169 307.2z" clip-path="url(#SVGID_2_)"/>
	<path fill="#BDC3C7" fill-rule="evenodd" clip-rule="evenodd" d="m240.5 115.8l-71.5 71.2v213.4h185.3v-284.6h-113.8z" clip-path="url(#SVGID_2_)"/>
	<path fill="#ECF0F1" fill-rule="evenodd" clip-rule="evenodd" d="m214.6 96.4l-71.6 71.5v213.1h185.3v-284.6h-113.7z" clip-path="url(#SVGID_2_)"/>
	<path fill="#BDC3C7" fill-rule="evenodd" clip-rule="evenodd" d="m143 167.9h71.6v-71.5l-71.6 71.5z" clip-path="url(#SVGID_2_)"/>
</svg>
