<?xml version="1.0" encoding="UTF-8" standalone="no"?>
<!-- Generator: Adobe Illustrator 18.0.0, SVG Export Plug-In . SVG Version: 6.00 Build 0)  -->
<!DOCTYPE svg  PUBLIC '-//W3C//DTD SVG 1.1//EN'  'http://www.w3.org/Graphics/SVG/1.1/DTD/svg11.dtd'>
<svg id="Layer_1" xmlns="http://www.w3.org/2000/svg" xml:space="preserve" viewBox="0 0 500 500" version="1.1" y="0px" x="0px" xmlns:xlink="http://www.w3.org/1999/xlink" enable-background="new 0 0 500 500">
	<g fill="#fff">
		<path d="m279.8 127.9c-30.2 24.3-68.4 44.6-86.6 80.3 48.4-13 96.7-25.9 145.1-38.9-22.2-30.2-46-59.7-72.7-86.1-5.3-5.3-65.9 16.9-72.7 18.7-6.1 1.6-68.3 24.2-72.4 20.2 26.7 26.4 50.5 55.8 72.7 86.1 3.1 4.3 67.4-17.3 72.7-18.7 17.1-4.6 34.2-9.2 51.2-14 0.2-0.1 20.1-4.2 21.1-6.2 18.2-35.7 56.4-56.1 86.6-80.3-3 2.4-18.8 4.5-21.4 5.2-17.1 4.4-34.3 9-51.4 13.5-17.1 4.6-34.2 9.2-51.2 14-3.6 1.1-17.1 3.1-21 6.2z"/>
		<path d="m279.8 162.4c-30.7 15.3-53.5 38.4-69.3 68.8 48.4-13 96.7-25.9 145.1-38.9-27.9-28.7-65.7-51.3-86.6-86.1-2.1-3.5-68 17.5-72.7 18.7-4.3 1.2-71.1 22.2-72.4 20.2 20.9 34.7 58.7 57.4 86.6 86.1 5 5.2 66.1-16.9 72.7-18.7 17.1-4.6 34.2-9.2 51.2-14 0.3-0.1 20.1-4.2 21.1-6.2 15.7-30.4 38.6-53.5 69.3-68.8-20.6 10.3-50.6 12.8-72.7 18.7-22.6 6.1-51 9.6-72.3 20.2z"/>
		<path d="m262.5 168.1c-28.8 15.9-56.7 31-69.3 63.1 48.4-13 96.7-25.9 145.1-38.9-32.7-33.1-65.6-66-97-100.4-48.4 13-96.7 25.9-145.1 38.9 3.5 1.9 6.9 3.8 10.4 5.7 2.3 1.2 20.7-5 21.4-5.2 17.1-4.4 34.3-9 51.4-13.5s34.2-9.2 51.2-14c-0.3 0.1 19.8-6.9 21.1-6.2-3.5-1.9-6.9-3.8-10.4-5.7-2.3-1.2-20.7 5-21.4 5.2-17.1 4.4-34.3 9-51.4 13.5-5.6 1.5-69 23.8-72.4 20.2 31.4 34.4 64.3 67.3 97 100.4 5.1 5.2 66-16.9 72.7-18.7 17.1-4.6 34.2-9.2 51.2-14-0.2 0.1 20.4-4.5 21.1-6.2 12.6-32.1 40.5-47.2 69.3-63.1-4.8 2.7-16.6 4-21.4 5.2-17.1 4.4-34.3 9-51.4 13.5-21.8 5.9-51.8 9-72.1 20.2z"/>
		<path d="m276.4 138.1c-25.9 26.1-59 43.9-83.1 71.7 48.4-13 96.7-25.9 145.1-38.9-30.4-27.6-65.2-50.5-93.5-80.3-4.8-5.1-66.2 17-72.7 18.7-5.8 1.6-68.7 24-72.4 20.2 28.3 29.8 63.1 52.7 93.5 80.3 6 5.5 65.4-16.7 72.7-18.7 17.1-4.6 34.2-9.2 51.2-14 1.9-0.5 18.8-3.5 21.1-6.2 24.2-27.8 57.2-45.7 83.1-71.7-2 2.1-20 4.8-21.4 5.2-17.1 4.4-34.3 9-51.4 13.5-17.1 4.6-34.2 9.2-51.2 14-2.5 0.7-18.2 3.3-21 6.2z"/>
	</g>
		<path d="m298.9 117.1c-24.1 25.1-53.4 47-66.6 80.3 21.5-5.8 43-11.5 64.5-17.3-16.8-29.8-35-59.1-55.9-86.1-5.6-7.2-59.5 23.7-64.5 17.3 21 27 39.1 56.3 55.9 86.1 0.3 0.5 62.9-13.3 64.5-17.3 13.1-33.4 42.5-55.2 66.6-80.3-4.7 4.9-25.9 6.6-32.3 8.3-6.9 1.9-27 3.6-32.2 9z"/>
		<path d="m298.9 151.6c-25.6 16.6-42.1 40.8-53.3 68.8 21.5-5.8 43-11.5 64.5-17.3-21.6-28.7-51.3-53.1-66.6-86.1-1.8-3.9-63.1 20.3-64.5 17.3 15.3 32.9 45 57.3 66.6 86.1 1.1 1.4 63-13.7 64.5-17.3 11.2-28.1 27.7-52.2 53.3-68.8-17.6 11.4-46.6 5.6-64.5 17.3z"/>
		<path d="m285.6 157.3c-24.1 17.3-44.4 33.7-53.3 63.1 21.5-5.8 43-11.5 64.5-17.3-25.2-33.2-50.6-66.3-74.6-100.4-21.5 5.8-43 11.5-64.5 17.3 2.7 1.9 5.3 3.8 8 5.7 3.6 2.6 28.3-7.3 32.3-8.3 3.6-1 29.2-11.1 32.2-9-2.7-1.9-5.3-3.8-8-5.7-8.4-6-59.7 24.1-64.5 17.3 24 34.1 49.3 67.2 74.6 100.4 1.1 1.5 63.5-14.1 64.5-17.3 8.8-29.4 29.2-45.8 53.3-63.1-16.8 12-47.4 5.1-64.5 17.3z"/>
		<path d="m296.3 127.3c-19.7 25.5-45.8 45-63.9 71.7 21.5-5.8 43-11.5 64.5-17.3-23.2-27.4-50.6-51.3-71.9-80.3-5.1-6.9-60 23.4-64.5 17.3 21.3 29 48.7 53 71.9 80.3 1.7 2 61.7-13.2 64.5-17.3 18.1-26.7 44.3-46.2 63.9-71.7-3.5 4.5-26.9 6.9-32.3 8.3-5.9 1.6-28.3 3.9-32.2 9z"/>
	<g fill="#FFE600">
		<path d="m327.1 109.6c-24.1 25.1-53.4 47-66.6 80.3 2.7-0.7 5.4-1.4 8.1-2.2-16.8-29.8-35-59.1-55.9-86.1-0.7-0.9-7.4 3-8.1 2.2 21 27 39.1 56.3 55.9 86.1 0 0.1 7.9-1.7 8.1-2.2 13.1-33.4 42.5-55.2 66.6-80.3-1.6 1.7-6.4 0.4-8.1 2.2z"/>
		<path d="m327.1 144c-25.6 16.6-42.1 40.8-53.3 68.8 2.7-0.7 5.4-1.4 8.1-2.2-21.6-28.7-51.3-53.1-66.6-86.1-0.2-0.5-7.9 2.5-8.1 2.2 15.3 32.9 45 57.3 66.6 86.1 0.1 0.2 7.9-1.7 8.1-2.2 11.2-28.1 27.7-52.2 53.3-68.8-2.2 1.5-5.8 0.7-8.1 2.2z"/>
		<path d="m313.8 149.7c-24.1 17.3-44.4 33.7-53.3 63.1 2.7-0.7 5.4-1.4 8.1-2.2-25.2-33.2-50.6-66.3-74.6-100.4-2.7 0.7-5.4 1.4-8.1 2.2 2.7 1.9 5.3 3.8 8 5.7 1.5 1.1 6.7-3.2 8.1-2.2-2.7-1.9-5.3-3.8-8-5.7-1.1-0.8-7.5 3-8.1 2.2 24 34.1 49.3 67.2 74.6 100.4 0.1 0.2 7.9-1.8 8.1-2.2 8.8-29.4 29.2-45.8 53.3-63.1-2.1 1.6-5.9 0.7-8.1 2.2z"/>
		<path d="m324.5 119.7c-19.7 25.5-45.8 45-63.9 71.7 2.7-0.7 5.4-1.4 8.1-2.2-23.2-27.4-50.6-51.3-71.9-80.3-0.6-0.9-7.5 2.9-8.1 2.2 21.3 29 48.7 53 71.9 80.3 0.2 0.2 7.7-1.6 8.1-2.2 18.1-26.7 44.3-46.2 63.9-71.7-1.4 1.8-6.8 0.4-8.1 2.2z"/>
	</g>
	<g fill="#fff">
		<path d="m348.7 238.1c-54.8 41.3-128.9 75.4-161.6 138.9 48.4-13 96.7-25.9 145.1-38.9-41.4-52.6-86.1-103.8-135.7-148.8-6-5.5-65.4 16.7-72.7 18.7-6.6 1.8-67.6 24.4-72.4 20.2 49.6 45.1 94.3 96.2 135.7 148.8 3.5 4.5 67.1-17.2 72.7-18.7 17.1-4.6 34.2-9.2 51.2-14 0.3-0.1 20.1-4.2 21.1-6.2 32.9-63.5 106.9-97.6 161.7-138.9-3.3 2.5-18.5 4.4-21.4 5.2-17.1 4.4-34.3 9-51.4 13.5-17.1 4.6-34.2 9.2-51.2 14-4.1 1.1-16.9 3.1-21.1 6.2z"/>
		<path d="m348.7 297.6c-55.5 24.8-100.3 65.5-129.3 119 48.4-13 96.7-25.9 145.1-38.9-51.3-49.5-123.3-87.1-161.5-148.7-2.3-3.6-68 17.4-72.7 18.7-4.4 1.2-71 22.3-72.4 20.2 38.2 61.6 110.3 99.2 161.6 148.8 5.5 5.3 65.8-16.8 72.7-18.7 17.1-4.6 34.2-9.2 51.2-14 0.4-0.1 20-4.1 21.1-6.2 29-53.5 73.8-94.2 129.3-119-21.6 9.7-49.9 12.6-72.7 18.7-23.3 6.2-50.2 10.2-72.4 20.1z"/>
		<path d="m316.4 307.5c-51.3 26.2-107 52.2-129.3 109.1 48.4-13 96.7-25.9 145.1-38.9-61-57.2-122.4-113.9-181-173.6-48.4 13-96.7 25.9-145.1 38.9 7.2 2.3 12.1 7.6 19.4 9.9 3.5 1.1 19.2-4.6 21.4-5.2 17.1-4.4 34.3-9 51.4-13.5 17.1-4.6 34.2-9.2 51.2-14 1-0.3 18.7-7 21.1-6.2-7.2-2.3-12.1-7.6-19.4-9.9-3.5-1.1-19.2 4.6-21.4 5.2-17.1 4.4-34.3 9-51.4 13.5-6 1.6-68.5 24.1-72.4 20.2 58.6 59.7 120 116.4 181 173.6 5.8 5.4 65.6-16.8 72.7-18.7 17.1-4.6 34.2-9.2 51.2-14-0.2 0.1 20.4-4.5 21.1-6.2 22.3-57 78-82.9 129.3-109.1-20.3 10.4-50.8 12.8-72.7 18.7-22.4 6.1-51.2 9.5-72.2 20.2z"/>
		<path d="m342.2 255.6c-48 45.9-110.3 74.6-155.1 124 48.4-13 96.7-25.9 145.1-38.9-56.5-48.1-121.8-86.4-174.5-138.9-5.3-5.2-65.9 16.9-72.7 18.7-6.1 1.6-68.4 24.2-72.4 20.2 52.7 52.5 118 90.8 174.5 138.9 1.4 1.2 21.7-5.3 21.4-5.2 17.1-4.4 34.3-9 51.4-13.5s34.2-9.2 51.2-14c2.1-0.6 18.6-3.5 21.1-6.2 44.8-49.4 107.1-78.1 155.1-124-2.2 2.1-19.8 4.8-21.4 5.2-17.1 4.4-34.3 9-51.4 13.5-17.1 4.6-34.2 9.2-51.2 14-2.8 0.8-18 3.3-21.1 6.2z"/>
	</g>
		<path d="m349.4 227.3c-44 42.9-100.5 79.9-124.2 138.9 21.5-5.8 43-11.5 64.5-17.3-31.3-51.7-65.3-102.6-104.4-148.8-6.4-7.6-58.7 24.2-64.5 17.3 39.1 46.2 73 97.2 104.4 148.8 0.4 0.7 62.9-13.4 64.5-17.3 23.8-59 80.3-96 124.2-138.9-5.1 5-25.6 6.5-32.3 8.3-7.3 2-26.6 3.5-32.2 9z"/>
		<path d="m349.4 286.8c-46.5 27.2-78.8 69.8-99.4 119 21.5-5.8 43-11.5 64.5-17.3-39.7-49.7-96.2-90.7-124.2-148.8-2-4.2-62.9 20.6-64.5 17.3 28 58.1 84.5 99.1 124.2 148.8 1.3 1.6 63-13.6 64.5-17.3 20.6-49.2 52.9-91.9 99.4-119-18.4 10.8-45.8 6.4-64.5 17.3z"/>
		<path d="m324.6 296.7c-43.4 28.8-83.6 57.1-99.4 109.1 21.5-5.8 43-11.5 64.5-17.3-47.1-57.3-94.4-114.4-139.2-173.6-21.5 5.8-43 11.5-64.5 17.3 5.6 2.9 9.3 7 14.9 9.9 5 2.6 27.2-7 32.3-8.3 4.6-1.2 27.8-11.2 32.2-9-5.6-2.9-9.3-7-14.9-9.9-9.6-5-59.3 24.1-64.5 17.3 44.7 59.2 92.1 116.3 139.2 173.6 1.4 1.7 63.5-14.1 64.5-17.3 15.8-52.1 56-80.3 99.4-109.1-17.5 11.6-46.8 5.6-64.5 17.3z"/>
		<path d="m344.5 244.8c-36.2 44.8-86 76.7-119.3 124 21.5-5.8 43-11.5 64.5-17.3-43.1-47.6-94.7-88-134.2-138.9-5.6-7.2-59.5 23.7-64.5 17.3 39.5 50.9 91 91.3 134.2 138.9 2 2.2 61.6-13.1 64.5-17.3 33.2-47.3 83-79.2 119.3-124-3.7 4.6-26.7 6.8-32.3 8.3-6.2 1.7-28 3.8-32.2 9z"/>
	<g fill="#FFE600">
		<path d="m377.6 219.7c-44 42.9-100.5 79.9-124.2 138.9 2.7-0.7 5.4-1.4 8.1-2.2-31.3-51.7-65.3-102.6-104.4-148.8-0.8-0.9-7.3 3-8.1 2.2 39.1 46.2 73 97.2 104.4 148.8 0.1 0.1 7.9-1.7 8.1-2.2 23.8-59 80.3-96 124.2-138.9-1.7 1.7-6.3 0.5-8.1 2.2z"/>
		<path d="m377.6 279.3c-46.5 27.2-78.8 69.8-99.4 119 2.7-0.7 5.4-1.4 8.1-2.2-39.7-49.7-96.2-90.7-124.2-148.8-0.3-0.5-7.9 2.6-8.1 2.2 28 58.1 84.5 99.1 124.2 148.8 0.2 0.2 7.9-1.7 8.1-2.2 20.6-49.2 52.9-91.9 99.4-119-2.3 1.3-5.7 0.8-8.1 2.2z"/>
		<path d="m352.8 289.2c-43.4 28.8-83.6 57.1-99.4 109.1 2.7-0.7 5.4-1.4 8.1-2.2-47.1-57.3-94.4-114.4-139.2-173.6-2.7 0.7-5.4 1.4-8.1 2.2 5.6 2.9 9.3 7 14.9 9.9 1.9 1 6.3-3.1 8.1-2.2-5.6-2.9-9.3-7-14.9-9.9-1.2-0.6-7.4 3-8.1 2.2 44.8 59.2 92.1 116.3 139.2 173.6 0.2 0.2 7.9-1.8 8.1-2.2 15.8-52.1 56-80.3 99.4-109.1-2.2 1.5-5.9 0.7-8.1 2.2z"/>
		<path d="m372.7 237.3c-36.2 44.8-86 76.7-119.3 124 2.7-0.7 5.4-1.4 8.1-2.2-43.1-47.6-94.7-88-134.2-138.9-0.7-0.9-7.4 3-8.1 2.2 39.5 50.9 91 91.3 134.2 138.9 0.2 0.3 7.7-1.6 8.1-2.2 33.2-47.3 83-79.2 119.3-124-1.5 1.7-6.7 0.4-8.1 2.2z"/>
	</g>
</svg>
