<?xml version="1.0" encoding="UTF-8" standalone="no"?>
<!-- Generator: Adobe Illustrator 18.0.0, SVG Export Plug-In . SVG Version: 6.00 Build 0)  -->
<!DOCTYPE svg  PUBLIC '-//W3C//DTD SVG 1.1//EN'  'http://www.w3.org/Graphics/SVG/1.1/DTD/svg11.dtd'>
<svg id="Layer_1" xmlns="http://www.w3.org/2000/svg" xml:space="preserve" viewBox="0 0 500 500" version="1.1" y="0px" x="0px" xmlns:xlink="http://www.w3.org/1999/xlink" enable-background="new 0 0 500 500">
		<path d="m400 93c-20.6-44.6-61.4-67.4-92.7-73.8-75.5-15.7-133-5.3-170.9 30.8-64.3 60.9-48.1 172.2-47.3 177 0.7 4.6 5.2 7.9 9.7 7.1 4.6-0.7 7.8-5 7.1-9.7-0.2-1.1-15.6-107.3 42.3-162.2 33.7-31.9 86.1-40.8 155.7-26.4 27.3 5.6 62.8 25.5 80.8 64.4 22.6 49 11.5 117.2-32.3 197.2-12 21.9-16.5 40.1-21.2 59.5-5.3 21.4-11.2 45.7-28.8 81-10.4 20.9-46 35.4-81.1 33-16.3-1.1-55.6-7.9-69.5-48.3-16.4-28.7-37.2-81.3-23.2-100.2 8.1-10.9 28.2-9 43.3-5.6 3.7 2.2 8.1 18.8 10.7 28.8 6.3 23.8 13.7 50.5 33.2 49 1.2 0.1 29.9 2.4 41.4-17 9.1-15.3 4.3-37.5-14.7-67.6 14.8-14.3 52.7-55.7 34.8-92.2-5.6-11.4-23.6-27.2-46.3-27.2h-0.6c-12.8 0.2-30.1 5.6-45.2 28.1-6.7-20.7-15.1-56.6-3.2-83.7 6.7-15.3 18.9-25.6 37.2-31.4 13.6-4.4 59.1-8.8 85.7 15.9 21.6 20 26.6 54.9 15 103.6-1.1 4.6 1.7 9.1 6.3 10.3 4.6 1.1 9.1-1.8 10.3-6.3 13.2-55.1 6.5-95.5-19.9-120-34.9-32.4-89.7-23.7-102.4-19.6-22.9 7.4-38.9 21.1-47.6 40.8-20.8 47.1 8.3 111.5 9.5 114.2 1.4 3 4.4 5 7.7 5s6.3-1.9 7.7-4.9c10.4-22.6 23.9-34.7 39.2-34.9h0.4c14.4 0 27.5 10.4 31.1 17.7 13.1 26.7-21.6 64.5-36.1 76.9-3.3 2.8-3.9 7.6-1.6 11.2 23.6 35.2 21.5 49.9 18.2 55.6-5.9 10.1-25.1 8.8-26.7 8.8-7.1-0.1-13.1-22.6-16.8-36.4-5.4-20.4-10.1-38-23-40.9-29.7-6.7-50.2-2.7-61.1 12-25.1 33.8 17.2 110.1 21.4 117.3 11.7 34.2 42.3 55.4 83.9 58.2 3 0.2 6 0.3 9 0.3 39.4 0 75.7-17.2 88.4-42.6 18.5-37 24.7-62.2 30.1-84.5 4.6-19 8.7-35.4 19.6-55.4 46.8-86.5 57.9-158 32.5-212.9z" fill="#fff"/>
</svg>
