<?xml version="1.0" encoding="utf-8"?>
<!-- Generator: Adobe Illustrator 18.0.0, SVG Export Plug-In . SVG Version: 6.00 Build 0)  -->
<!DOCTYPE svg PUBLIC "-//W3C//DTD SVG 1.1//EN" "http://www.w3.org/Graphics/SVG/1.1/DTD/svg11.dtd">
<svg version="1.1" id="Layer_1" xmlns="http://www.w3.org/2000/svg" xmlns:xlink="http://www.w3.org/1999/xlink" x="0px" y="0px"
	 viewBox="0 0 500 500" enable-background="new 0 0 500 500" xml:space="preserve">
<g>
	<path fill="#FFFFFF" d="M372.4,5.2l-63.5-0.1c-71.4,0-117.5,47.3-117.5,120.5v55.6h-63.9c-5.5,0-10,4.5-10,10v80.5
		c0,5.5,4.5,10,10,10h63.9v203.2c0,5.5,4.5,10,10,10h83.3c5.5,0,10-4.5,10-10V281.7h74.7c5.5,0,10-4.5,10-10l0-80.5
		c0-2.6-1.1-5.2-2.9-7.1c-1.9-1.9-4.4-2.9-7.1-2.9h-74.7v-47.1c0-22.6,5.4-34.1,34.9-34.1l42.8,0c5.5,0,10-4.5,10-10V15.2
		C382.4,9.7,377.9,5.2,372.4,5.2z"/>
</g>
</svg>
