<?xml version="1.0" encoding="UTF-8" standalone="no"?>
<!-- Generator: Adobe Illustrator 18.0.0, SVG Export Plug-In . SVG Version: 6.00 Build 0)  -->
<!DOCTYPE svg  PUBLIC '-//W3C//DTD SVG 1.1//EN'  'http://www.w3.org/Graphics/SVG/1.1/DTD/svg11.dtd'>
<svg id="Layer_1" xmlns="http://www.w3.org/2000/svg" xml:space="preserve" viewBox="0 0 500 500" version="1.1" y="0px" x="0px" xmlns:xlink="http://www.w3.org/1999/xlink" enable-background="new 0 0 500 500">
<path d="m4.7 287.6c5-1.1 10 1.3 14.9 1.8 0.5 0.1 3.3-0.6 3.5-0.9 28.2-44.5 22.6-98.6 39.9-146.9-0.2 0.6-3 0.3-3.5 0.9-12.2 16.8-18.8 39-25 58.6-7.7 24-15.6 51.6-12.1 77 1.7 12.3 11.4 23.2 24.3 17.5 18.5-8.2 22.6-42.1 22.9-59.7 0 0.3-3.4 0.5-3.5 0.9-1.3 14.3-0.4 29.1 10 39.9 0.2 0.2 3.2-0.7 3.5-0.9 10.6-8.7 14.8-21.6 18.3-34.5-1.2 0.3-2.3 0.6-3.5 0.9-2 8.6-9.6 43.9 7.3 43.9 8.3 0 15-8.4 19.5-14 12.8-16.1 22.5-35 30.9-53.7 8.6-19 15.9-39.6 17.2-60.5 0 0.4-3.3 0.4-3.5 0.9-11.9 26.6-4.2 57.8-4.8 85.9-0.9 38.4-11.6 75.8-16.8 113.6 0.1-0.4 3.1-0.6 3.5-0.9 9.9-9 15.5-23.2 20.3-35.3 6.5-16.6 11.2-34.3 12.9-52.1 1.2-12.3 1.3-28.6-8.7-37.5-7.2-6.3-17.5-3.7-25.8-1.3l-0.5 0.1c14.8 26.8 46.7-5 63.3-11.8-1.2 0.3-2.3 0.6-3.5 0.9 3.3 15.1 4.7 30.7 10 45.3 0-0.1 3.4-0.7 3.5-0.9 6.1-17.4-0.8-34.4-5.6-51.3-1.1-4-2-8.1-2.7-12.2 0.1 0.4 6.9-3.5 7.4-3.9 5.3-3.6 7.4-10.4 9.3-16.1-0.2 0.6-3.1 0.3-3.5 0.9-14 22.8-10.1 52.4-10 78 0-0.3 3.2-0.6 3.5-0.9 7.1-8.1 12.9-17.2 19.9-25.4-1.2 0.3-2.3 0.6-3.5 0.9 0.8 8.1 4.4 15.5 5 23.6 0-0.2 3.2-0.7 3.5-0.9 10.3-7.6 20.4-15.4 31.6-21.8-1.2 0.3-2.3 0.6-3.5 0.9-1.6 3.2 12.9 2.1 15 1.8 0.4 0 3.4-1.1 3.5-0.9-1.1 0.3-2.2 0.6-3.2 0.9 8.7-2.1 12.5-8.5 18.2-15.4-1.2 0.3-2.3 0.6-3.5 0.9 6.4 29.4 37.1 5.1 46.7-8.2-0.5 0.6-2.7 0.5-3.5 0.9-10 5.6-14.2 15-14.3 26.2 0 8 3.4 6.2 9.2 4.6 16.2-4.3 29.2-16.7 45.9-19.6 11.5-2 23.5-0.3 35.1-2.5 4.5-0.9 9.1-1.9 13.5-3.1 20.8-5.7 40.2-15.1 60.2-22.9-1.2 0.3-2.3 0.6-3.5 0.9 1.6 2.6 1.6 4.2 1.7 7.3 0-0.3 3.5-0.6 3.5-0.9-0.1-3-0.1-4.7-1.7-7.3-0.1-0.2-3.1 0.8-3.5 0.9-23.3 9.1-45.7 20.7-70.7 24.8-13.1 2.1-26.5 0.2-39.3 3.6-10.4 2.8-19.4 8.4-28.8 13.4-5.5 2.9-11.1 5.2-17.2 6.3-1.2 0.2-0.7-11.9-0.6-12.9 0.9-8.7 6.6-15.7 13.9-19.8-1.2 0.3-2.3 0.6-3.5 0.9-6.4 8.9-15.1 16.9-25.5 20.7 0.9-0.2 1.7-0.5 2.6-0.7-10.2 2.7-14.9-4.7-16.8-13.7 0 0.1-3.2 0.7-3.5 0.9-4.1 4.9-7.5 10.6-13 14 1.1-0.3 2.2-0.6 3.2-0.9-0.6 0.2-1.3 0.3-1.9 0.5-0.3 0.1-3.1 1-3.2 0.9 1.2-0.3 2.3-0.6 3.5-0.9-2.1 0.2-16.6 1.4-15-1.8-0.3 0.6-2.9 0.6-3.5 0.9-11.1 6.4-21.3 14.2-31.6 21.8 1.2-0.3 2.3-0.6 3.5-0.9-0.6-8.1-4.2-15.5-5-23.6 0 0.2-3.2 0.6-3.5 0.9-7.1 8.1-12.9 17.2-19.9 25.4 1.2-0.3 2.3-0.6 3.5-0.9-0.1-25.6-4.1-55.2 10-78-1.2 0.3-2.3 0.6-3.5 0.9-1.7 5.4-3.6 10.2-7.4 14.5-1.7 1.9-4.2 3.1-6.4 4.3-4.8 2.5-1.4 8.5-0.1 13.4 4.5 17.1 11.8 33.6 5.6 51.3 1.2-0.3 2.3-0.6 3.5-0.9-5.3-14.6-6.7-30.2-10-45.3 0 0-3.2 0.8-3.5 0.9-9.6 3.9-17.9 10.8-27 15.9-6 3.3-12.2 5.7-19.1 4-3.3-0.8-13.7-9.6-6.1-10.7 17.1-2.3 23.2 13.2 24.2 27.4 1.3 19.3-4.1 39.4-10.2 57.5-5 14.8-11.4 32.9-23.3 43.7 1.2-0.3 2.3-0.6 3.5-0.9 5-37 14.7-73.3 16.6-110.7 1.5-29.1-7.4-61.3 5-88.9-1.2 0.3-2.3 0.6-3.5 0.9-1.6 24.6-11.3 48.4-21.8 70.4-5.3 11.2-11.5 22-18.2 32.4-5.7 8.8-12.4 19.7-22.3 24.1 1.1-0.3 2.3-0.6 3.4-0.9-18.6 4.3-10.9-35.5-9.1-43.5-0.1 0.5-3.3 0.3-3.5 0.9-3.5 12.8-7.7 25.7-18.3 34.5 1.2-0.3 2.3-0.6 3.5-0.9-10.4-10.8-11.3-25.6-10-39.9-1.2 0.3-2.3 0.6-3.5 0.9-0.3 17.1-4.6 54.2-24.4 60.1 1.1-0.3 2.3-0.6 3.4-0.9-47.9 7.5 5-136.7 17.8-154.4-1.2 0.3-2.3 0.6-3.5 0.9-17.2 48.7-11.5 102.9-39.8 147.4 1.2-0.3 2.3-0.6 3.5-0.9-5.1-0.6-9.9-2.9-15-1.8-1.1 0.2-2.6 0.7-3.4 0.8z" fill="#fff"/>
</svg>
