<?xml version="1.0" encoding="UTF-8" standalone="no"?>
<!-- Generator: Adobe Illustrator 18.0.0, SVG Export Plug-In . SVG Version: 6.00 Build 0)  -->
<!DOCTYPE svg  PUBLIC '-//W3C//DTD SVG 1.1//EN'  'http://www.w3.org/Graphics/SVG/1.1/DTD/svg11.dtd'>
<svg id="Layer_1" xmlns="http://www.w3.org/2000/svg" xml:space="preserve" viewBox="0 0 500 500" version="1.1" y="0px" x="0px" xmlns:xlink="http://www.w3.org/1999/xlink" enable-background="new 0 0 500 500">
<path d="m250 424.8l-4.2-2.2c-8.3-4.2-202.5-104.7-202.5-229.4 0-69.6 56.1-118 106.4-118 57.4 0 87.5 28 100.6 45.3 13.6-17.2 44.5-45.3 102-45.3 50.5 0 104.5 47.4 104.5 118 0 124.7-194.2 225.2-202.5 229.4l-4.3 2.2zm-100.3-331c-35.9 0-87.8 35.4-87.8 99.4 0 103.8 159.9 195.2 188.1 210.6 28.3-15.3 188.1-106.8 188.1-210.6 0-58.6-45.3-99.4-85.9-99.4-69.7 0-93.6 47.4-93.9 47.9l-8.7 17.8-8.2-18c-0.7-2-22.8-47.7-91.7-47.7z" fill="#fff"/>
</svg>
