<?xml version="1.0" encoding="UTF-8" standalone="no"?>
<!-- Generator: Adobe Illustrator 18.0.0, SVG Export Plug-In . SVG Version: 6.00 Build 0)  -->
<!DOCTYPE svg  PUBLIC '-//W3C//DTD SVG 1.1//EN'  'http://www.w3.org/Graphics/SVG/1.1/DTD/svg11.dtd'>
<svg id="Layer_1" xmlns="http://www.w3.org/2000/svg" xml:space="preserve" viewBox="0 0 500 500" version="1.1" y="0px" x="0px" xmlns:xlink="http://www.w3.org/1999/xlink" enable-background="new 0 0 500 500">
	<g fill="#fff">
			<path d="m240.5 141.5h16l2.5 31.9v28.1h-20.7v-28.1l2.2-31.9zm18-24.7v18.8h-20v-18.8h20z"/>
			<path d="m294.7 96.6v66.9h27.3v18.1h-49.4v-85h22.1z"/>
			<path d="m369.5 96.6l20.7 85h-23.6l-2.3-14.9h-17.6l-2.3 14.9h-23.2l20.4-85h27.9zm-14 17.4l-6.1 36.1h12.4l-6.1-36.1h-0.2z"/>
			<path d="m427.1 119.1c0-2.5-0.5-4.7-1.6-6.5-1-1.8-2.6-2.7-4.8-2.7-2.4 0-4.1 0.8-5.2 2.3s-1.7 3.3-1.7 5.2c0 2.8 0.9 5 2.7 6.6s4 3 6.7 4.2 5.6 2.4 8.7 3.6 6 2.8 8.7 4.8 4.9 4.6 6.7 7.8 2.7 7.4 2.7 12.6c0 9.1-2.6 15.6-7.7 19.7-5.2 4.1-12.6 6.1-22.4 6.1-4.6 0-8.7-0.4-12.2-1.1-3.5-0.8-6.5-2.1-8.9-3.9-2.4-1.9-4.3-4.3-5.5-7.3-1.3-3-1.9-6.8-1.9-11.2v-3h21.4v2c0 3.7 0.7 6.2 2 7.7 1.4 1.5 3.1 2.2 5.2 2.2 2.3 0 4.1-0.8 5.3-2.4s1.8-3.5 1.8-5.8c0-2.8-0.9-5-2.6-6.6s-3.9-3-6.4-4.2c-2.6-1.2-5.4-2.3-8.4-3.5s-5.8-2.7-8.4-4.6-4.7-4.4-6.4-7.5-2.6-7.1-2.6-12.1c0-8.7 2.3-15.2 6.9-19.8 4.6-4.5 11.6-6.8 21-6.8 9.7 0 16.7 2.1 21 6.3s6.5 10.8 6.5 20h-20.7v-2.1z"/>
			<path d="m97.7 310.6l9.8 70.1h0.3l9.8-70.1h25.8l-20.1 93.1h-31.4l-19.7-93.1h25.5z"/>
			<path d="m170.5 310.6v93.1h-24.2v-93.1h24.2z"/>
			<path d="m199.4 310.6l9.8 70.1h0.3l9.8-70.1h25.7l-20.1 93.1h-31.3l-19.7-93.1h25.5z"/>
			<path d="m289.8 310.6l22.7 93.1h-25.8l-2.5-16.3h-19.3l-2.5 16.3h-25.4l22.3-93.1h30.5zm-15.4 19l-6.6 39.5h13.6l-6.6-39.5h-0.4z"/>
			<path d="m352.8 335.2c0-2.8-0.6-5.1-1.7-7.1s-2.9-2.9-5.2-2.9c-2.6 0-4.5 0.8-5.7 2.5s-1.8 3.6-1.8 5.7c0 3 1 5.5 2.9 7.2 2 1.8 4.4 3.3 7.4 4.6s6.1 2.6 9.5 4c3.4 1.3 6.6 3.1 9.5 5.3 3 2.2 5.4 5 7.4 8.5s2.9 8.1 2.9 13.7c0 9.9-2.8 17.1-8.5 21.6-5.6 4.5-13.8 6.7-24.5 6.7-5 0-9.5-0.4-13.4-1.2s-7.1-2.3-9.8-4.3c-2.6-2-4.7-4.7-6.1-8s-2.1-7.4-2.1-12.3v-3.2h23.5v2.2c0 4 0.7 6.8 2.2 8.4s3.4 2.4 5.7 2.4c2.5 0 4.5-0.9 5.8-2.6s2-3.9 2-6.4c0-3-0.9-5.5-2.8-7.2-1.9-1.8-4.2-3.3-7-4.6s-5.9-2.5-9.2-3.8-6.4-3-9.2-5.1-5.2-4.8-7-8.2c-1.9-3.4-2.8-7.8-2.8-13.3 0-9.5 2.5-16.7 7.6-21.6 5-5 12.7-7.4 22.9-7.4 10.6 0 18.3 2.3 23 6.8 4.7 4.6 7.1 11.8 7.1 21.8h-22.7v-2.2z"/>
			<path d="m389.9 310.6h22.7v31.2l-2.7 34.9h-17.5l-2.5-34.9v-31.2zm22.4 72.5v20.6h-21.9v-20.6h21.9z"/>
			<path d="m41.8 292.8c-0.9 0.1-1.7 0.3-2.6 0.4-0.8 0.1-1.8 0.2-2.8 0.2h-2c-5.2 0-9.5-0.7-13.1-2.1s-6.4-3.7-8.6-6.9-3.7-7.4-4.7-12.5c-0.9-5.1-1.4-11.3-1.4-18.6s0.5-13.5 1.4-18.6 2.5-9.3 4.7-12.5 5.1-5.6 8.6-7.1c3.6-1.5 7.9-2.2 13.1-2.2s9.5 0.7 13.1 2.2 6.4 3.9 8.6 7.1 3.7 7.4 4.7 12.5c0.9 5.1 1.4 11.3 1.4 18.6 0 7.5-0.5 13.8-1.5 19s-2.7 9.4-5 12.7l9.4 9.4-12.1 10.4-11.2-12zm-13.9-26.6c0.1 3.5 0.5 6.2 0.9 8.2 0.5 2 1.2 3.5 2.1 4.3s2.1 1.2 3.7 1.2c1.5 0 2.7-0.4 3.7-1.2 0.9-0.8 1.6-2.2 2.1-4.3 0.5-2 0.8-4.8 0.9-8.2 0.1-3.5 0.2-7.8 0.2-13s-0.1-9.6-0.2-13c-0.1-3.5-0.5-6.2-0.9-8.2-0.5-2-1.2-3.5-2.1-4.3s-2.1-1.2-3.7-1.2c-1.5 0-2.7 0.4-3.7 1.2-0.9 0.8-1.6 2.2-2.1 4.3-0.5 2-0.8 4.8-0.9 8.2-0.1 3.5-0.2 7.8-0.2 13s0 9.5 0.2 13z"/>
			<path d="m89.1 270.4c0 3.8 0.5 6.3 1.6 7.6s2.6 1.9 4.5 1.9 3.4-0.6 4.5-1.9 1.6-3.8 1.6-7.6v-56.2h20.3v51.1c0 5.5-0.6 10-1.7 13.6-1.2 3.6-2.9 6.5-5.1 8.7s-5 3.7-8.2 4.5c-3.3 0.8-7.1 1.2-11.3 1.2s-8-0.4-11.3-1.2-6.1-2.3-8.3-4.5-3.9-5.1-5.1-8.7-1.7-8.2-1.7-13.6v-51.1h20.3v56.2z"/>
			<path d="m176.4 214.2v16.6h-25.9v13.3h24.2v15.9h-24.2v15.5h26.8v16.6h-47.1v-77.9h46.2z"/>
			<path d="m216.6 214.2c3.9 0 7.1 0.5 9.9 1.5 2.7 1 4.9 2.5 6.7 4.3 1.7 1.9 2.9 4.1 3.7 6.6s1.1 5.3 1.1 8.3c0 5.2-1.1 9.5-3.2 12.7s-5.5 5.2-10.1 5.9v0.2c4.9 0.4 8.2 2.1 10 5.1s2.7 7.1 2.7 12.3v6.7 3.2c0 1.1 0 2.1 0.1 3.1s0.2 1.9 0.3 2.7 0.3 1.4 0.5 1.9c0.3 0.4 0.6 0.9 0.9 1.3s0.8 0.8 1.4 1.1v1.1h-21.6c-0.5-1-0.9-2.2-1.1-3.6-0.3-1.4-0.4-2.8-0.5-4.1-0.1-1.4-0.2-2.7-0.2-4s-0.1-2.3-0.1-3.1v-5.4c0-2.2-0.1-4-0.3-5.5s-0.6-2.6-1.1-3.4-1.2-1.4-2.1-1.7c-0.8-0.3-1.9-0.5-3.1-0.5h-5.3v31.2h-20.3v-77.9h31.7zm-7.4 33c2.9 0 5-0.9 6.4-2.6s2.1-3.9 2.1-6.7c0-3.3-0.7-5.6-2-7s-3.5-2.1-6.6-2.1h-3.9v18.3h4z"/>
			<path d="m293.6 214.2v16.6h-25.9v13.3h24.3v15.9h-24.2v15.5h26.8v16.6h-47.1v-77.9h46.1z"/>
			<path d="m330.2 214.2l8.2 46.1h0.2l8.2-46.1h29v77.9h-19v-58h-0.2l-10.8 58h-14.6l-10.8-58h-0.2v58h-19v-77.9h29z"/>
			<path d="m383.8 234.6c0.9-5.1 2.5-9.3 4.7-12.5s5-5.6 8.6-7.1 7.9-2.2 13.1-2.2 9.5 0.7 13.1 2.2 6.4 3.9 8.6 7.1 3.7 7.4 4.7 12.5c0.9 5.1 1.4 11.3 1.4 18.6s-0.5 13.5-1.4 18.6-2.5 9.3-4.7 12.5-5.1 5.5-8.6 6.9c-3.6 1.4-7.9 2.1-13.1 2.1s-9.5-0.7-13.1-2.1-6.4-3.7-8.6-6.9-3.7-7.4-4.7-12.5c-0.9-5.1-1.4-11.3-1.4-18.6s0.5-13.5 1.4-18.6zm19.7 31.6c0.1 3.5 0.5 6.2 0.9 8.2 0.5 2 1.2 3.5 2.1 4.3s2.1 1.2 3.7 1.2c1.5 0 2.7-0.4 3.7-1.2 0.9-0.8 1.6-2.2 2.1-4.3 0.5-2 0.8-4.8 0.9-8.2 0.1-3.5 0.2-7.8 0.2-13s-0.1-9.6-0.2-13c-0.1-3.5-0.5-6.2-0.9-8.2-0.5-2-1.2-3.5-2.1-4.3s-2.1-1.2-3.7-1.2c-1.5 0-2.7 0.4-3.7 1.2-0.9 0.8-1.6 2.2-2.1 4.3-0.5 2-0.8 4.8-0.9 8.2-0.1 3.5-0.2 7.8-0.2 13s0.1 9.5 0.2 13z"/>
			<path d="m475.7 234.8c0-2.3-0.5-4.3-1.4-5.9s-2.4-2.5-4.4-2.5c-2.2 0-3.8 0.7-4.8 2.1s-1.5 3-1.5 4.7c0 2.5 0.8 4.6 2.5 6.1 1.6 1.5 3.7 2.8 6.2 3.9s5.1 2.2 8 3.3c2.8 1.1 5.5 2.6 8 4.4s4.5 4.2 6.2 7.1c1.6 2.9 2.5 6.8 2.5 11.5 0 8.3-2.4 14.3-7.1 18.1-4.7 3.7-11.6 5.6-20.5 5.6-4.2 0-7.9-0.3-11.2-1-3.2-0.7-6-1.9-8.2-3.6s-3.9-3.9-5.1-6.7-1.7-6.2-1.7-10.3v-2.6h19.6v1.9c0 3.3 0.6 5.7 1.9 7 1.2 1.4 2.8 2 4.8 2 2.1 0 3.7-0.7 4.9-2.2 1.1-1.5 1.7-3.2 1.7-5.3 0-2.5-0.8-4.6-2.3-6.1-1.6-1.5-3.5-2.8-5.9-3.8-2.4-1.1-4.9-2.1-7.7-3.2s-5.3-2.5-7.7-4.3c-2.4-1.7-4.3-4-5.9-6.9-1.6-2.8-2.3-6.5-2.3-11.1 0-7.9 2.1-14 6.3-18.1s10.6-6.2 19.2-6.2c8.9 0 15.3 1.9 19.3 5.7s5.9 9.9 5.9 18.3h-19v-1.9z"/>
				<path d="m24.7 105.2v7.7h-12v6.2h11.2v7.4h-11.2v14.9h-9.4v-36.1h21.4z"/>
				<path d="m36.7 105.2v36.1h-9.4v-36.1h9.4z"/>
				<path d="m55.5 105.2c1.8 0 3.3 0.2 4.6 0.7s2.3 1.1 3.1 2 1.4 1.9 1.7 3.1c0.4 1.2 0.5 2.5 0.5 3.8 0 2.4-0.5 4.4-1.5 5.9s-2.5 2.4-4.7 2.7v0.1c2.3 0.2 3.8 1 4.7 2.4 0.8 1.4 1.3 3.3 1.3 5.7v3.1 1.5 1.4c0 0.5 0.1 0.9 0.2 1.2 0.1 0.4 0.2 0.7 0.3 0.9s0.3 0.4 0.4 0.6 0.4 0.4 0.7 0.5v0.5h-10c-0.2-0.5-0.4-1-0.5-1.7-0.1-0.6-0.2-1.3-0.3-1.9s-0.1-1.3-0.1-1.8v-1.4-2.5c0-1 0-1.9-0.2-2.5-0.1-0.7-0.3-1.2-0.5-1.6-0.3-0.4-0.6-0.7-1-0.8-0.4-0.2-0.9-0.2-1.4-0.2h-2.5v14.5h-9.4v-36.1h14.6zm-3.4 15.3c1.3 0 2.3-0.4 3-1.2 0.6-0.8 1-1.8 1-3.1 0-1.5-0.3-2.6-0.9-3.2s-1.6-1-3.1-1h-1.8v8.5h1.8z"/>
				<path d="m83 105.2l3.8 21.4h0.1l3.8-21.4h13.5v36.1h-8.8v-26.9h-0.1l-5 26.9h-6.8l-5-26.9h-0.1v26.9h-8.8v-36.1h13.4z"/>
				<path d="m126 105.2l8.8 36.1h-10l-1-6.3h-7.5l-1 6.3h-9.9l8.7-36.1h11.9zm-6 7.4l-2.6 15.3h5.3l-2.6-15.3h-0.1z"/>
				<path d="m149.5 105.2l3.8 21.4h0.1l3.8-21.4h13.5v36.1h-8.8v-26.9h-0.1l-5 26.9h-6.8l-5-26.9h-0.1v26.9h-8.9v-36.1h13.5z"/>
				<path d="m174.3 114.6c0.4-2.4 1.2-4.3 2.2-5.8s2.3-2.6 4-3.3 3.7-1 6.1-1 4.4 0.3 6.1 1 3 1.8 4 3.3 1.7 3.4 2.2 5.8c0.4 2.4 0.7 5.3 0.7 8.6s-0.2 6.3-0.7 8.6c-0.4 2.4-1.2 4.3-2.2 5.8s-2.3 2.6-4 3.2-3.7 1-6.1 1-4.4-0.3-6.1-1c-1.7-0.6-3-1.7-4-3.2s-1.7-3.4-2.2-5.8c-0.4-2.4-0.7-5.3-0.7-8.6s0.3-6.2 0.7-8.6zm9.2 14.7c0.1 1.6 0.2 2.9 0.4 3.8s0.5 1.6 1 2c0.4 0.4 1 0.6 1.7 0.6s1.3-0.2 1.7-0.6 0.7-1 1-2c0.2-0.9 0.4-2.2 0.4-3.8 0.1-1.6 0.1-3.6 0.1-6s0-4.4-0.1-6-0.2-2.9-0.4-3.8-0.5-1.6-1-2c-0.4-0.4-1-0.6-1.7-0.6s-1.3 0.2-1.7 0.6-0.7 1-1 2c-0.2 0.9-0.4 2.2-0.4 3.8-0.1 1.6-0.1 3.6-0.1 6s0 4.4 0.1 6z"/>
				<path d="m217 114.8c0-1.1-0.2-2-0.7-2.8-0.4-0.8-1.1-1.1-2-1.1-1 0-1.8 0.3-2.2 1-0.5 0.7-0.7 1.4-0.7 2.2 0 1.2 0.4 2.1 1.1 2.8 0.8 0.7 1.7 1.3 2.9 1.8 1.1 0.5 2.4 1 3.7 1.5s2.5 1.2 3.7 2.1c1.1 0.8 2.1 1.9 2.9 3.3s1.1 3.1 1.1 5.3c0 3.8-1.1 6.6-3.3 8.4-2.2 1.7-5.4 2.6-9.5 2.6-2 0-3.7-0.2-5.2-0.5s-2.8-0.9-3.8-1.7-1.8-1.8-2.4-3.1c-0.5-1.3-0.8-2.9-0.8-4.8v-1.3h9.1v0.9c0 1.6 0.3 2.6 0.9 3.3 0.6 0.6 1.3 0.9 2.2 0.9 1 0 1.7-0.3 2.3-1 0.5-0.7 0.8-1.5 0.8-2.5 0-1.2-0.4-2.1-1.1-2.8s-1.6-1.3-2.7-1.8-2.3-1-3.6-1.5-2.5-1.2-3.6-2-2-1.9-2.7-3.2-1.1-3-1.1-5.2c0-3.7 1-6.5 2.9-8.4 2-1.9 4.9-2.9 8.9-2.9 4.1 0 7.1 0.9 8.9 2.7s2.8 4.6 2.8 8.5h-8.8v-0.7z"/>
				<path d="m64.8 149.1c1.8 0 3.3 0.3 4.7 0.9 1.3 0.6 2.4 1.4 3.3 2.4s1.5 2.2 1.9 3.5c0.4 1.4 0.6 2.8 0.6 4.4 0 3.8-1 6.6-3 8.4-2 1.9-5 2.8-8.8 2.8h-3.5v13.8h-9.4v-36.1h14.2zm-3 15.6c1.2 0 2.1-0.4 2.7-1.1s0.9-1.8 0.9-3.3c0-2.9-1.2-4.4-3.6-4.4h-1.8v8.8h1.8z"/>
				<path d="m77.8 158.5c0.4-2.4 1.2-4.3 2.2-5.8s2.3-2.6 4-3.3 3.7-1 6.1-1 4.4 0.3 6.1 1 3 1.8 4 3.3 1.7 3.4 2.2 5.8c0.4 2.4 0.7 5.3 0.7 8.6s-0.2 6.3-0.7 8.6c-0.4 2.4-1.2 4.3-2.2 5.8s-2.3 2.6-4 3.2-3.7 1-6.1 1-4.4-0.3-6.1-1c-1.7-0.6-3-1.7-4-3.2s-1.7-3.4-2.2-5.8c-0.4-2.4-0.7-5.3-0.7-8.6s0.2-6.2 0.7-8.6zm9.1 14.7c0.1 1.6 0.2 2.9 0.4 3.8s0.5 1.6 1 2c0.4 0.4 1 0.6 1.7 0.6s1.3-0.2 1.7-0.6 0.7-1 1-2c0.2-0.9 0.4-2.2 0.4-3.8 0.1-1.6 0.1-3.6 0.1-6.1 0-2.4 0-4.4-0.1-6.1-0.1-1.6-0.2-2.9-0.4-3.8s-0.5-1.6-1-2c-0.4-0.4-1-0.6-1.7-0.6s-1.3 0.2-1.7 0.6-0.7 1-1 2c-0.2 0.9-0.4 2.2-0.4 3.8-0.1 1.6-0.1 3.6-0.1 6.1s0.1 4.5 0.1 6.1z"/>
				<path d="m121 149.1c1.8 0 3.3 0.2 4.6 0.7s2.3 1.1 3.1 2 1.4 1.9 1.7 3.1c0.4 1.2 0.5 2.5 0.5 3.8 0 2.4-0.5 4.4-1.5 5.9s-2.5 2.4-4.7 2.7v0.1c2.3 0.2 3.8 1 4.7 2.4 0.8 1.4 1.3 3.3 1.3 5.7v3.1 1.5 1.4c0 0.5 0.1 0.9 0.2 1.2 0.1 0.4 0.2 0.7 0.3 0.9s0.3 0.4 0.4 0.6 0.4 0.4 0.7 0.5v0.5h-10c-0.2-0.5-0.4-1-0.5-1.7-0.1-0.6-0.2-1.3-0.3-1.9s-0.1-1.3-0.1-1.8v-1.4-2.4c0-1 0-1.9-0.2-2.5-0.1-0.7-0.3-1.2-0.5-1.6-0.3-0.4-0.6-0.7-1-0.8-0.4-0.2-0.9-0.2-1.4-0.2h-2.5v14.5h-9.4v-36.1h14.6zm-3.4 15.3c1.3 0 2.3-0.4 3-1.2 0.6-0.8 1-1.8 1-3.1 0-1.5-0.3-2.6-0.9-3.2s-1.6-1-3.1-1h-1.8v8.5h1.8z"/>
				<path d="m150.6 185.6c-0.4 0.1-0.8 0.1-1.2 0.2-0.4 0-0.8 0.1-1.3 0.1h-0.9c-2.4 0-4.4-0.3-6.1-1-1.7-0.6-3-1.7-4-3.2s-1.7-3.4-2.2-5.8c-0.4-2.4-0.7-5.3-0.7-8.6s0.2-6.2 0.7-8.6c0.4-2.4 1.2-4.3 2.2-5.8s2.3-2.6 4-3.3 3.7-1 6.1-1 4.4 0.3 6.1 1 3 1.8 4 3.3 1.7 3.4 2.2 5.8c0.4 2.4 0.7 5.3 0.7 8.6 0 3.5-0.2 6.4-0.7 8.8s-1.2 4.4-2.3 5.9l4.4 4.4-5.7 4.9-5.3-5.7zm-6.5-12.4c0.1 1.6 0.2 2.9 0.4 3.8s0.5 1.6 1 2c0.4 0.4 1 0.6 1.7 0.6s1.3-0.2 1.7-0.6 0.7-1 1-2c0.2-0.9 0.4-2.2 0.4-3.8 0.1-1.6 0.1-3.6 0.1-6.1 0-2.4 0-4.4-0.1-6.1-0.1-1.6-0.2-2.9-0.4-3.8s-0.5-1.6-1-2c-0.4-0.4-1-0.6-1.7-0.6s-1.3 0.2-1.7 0.6-0.7 1-1 2c-0.2 0.9-0.4 2.2-0.4 3.8-0.1 1.6-0.1 3.6-0.1 6.1s0.1 4.5 0.1 6.1z"/>
				<path d="m172.5 175.2c0 1.8 0.3 2.9 0.8 3.5s1.2 0.9 2.1 0.9 1.6-0.3 2.1-0.9 0.8-1.8 0.8-3.5v-26.1h9.4v23.7c0 2.5-0.3 4.6-0.8 6.3s-1.3 3-2.4 4.1c-1 1-2.3 1.7-3.8 2.1s-3.3 0.6-5.3 0.6-3.7-0.2-5.2-0.6-2.8-1.1-3.8-2.1-1.8-2.4-2.4-4.1c-0.5-1.7-0.8-3.8-0.8-6.3v-23.7h9.4v26.1z"/>
				<path d="m213.1 149.1v7.7h-12v6.2h11.2v7.4h-11.2v7.2h12.5v7.7h-21.9v-36.1h21.4z"/>
				<path d="m225.6 157.9v10h-8.5v-10h8.5zm0 17.3v10h-8.5v-10h8.5z"/>
	</g>
</svg>
