<?xml version="1.0" encoding="UTF-8" standalone="no"?>
<!-- Generator: Adobe Illustrator 18.0.0, SVG Export Plug-In . SVG Version: 6.00 Build 0)  -->
<!DOCTYPE svg  PUBLIC '-//W3C//DTD SVG 1.1//EN'  'http://www.w3.org/Graphics/SVG/1.1/DTD/svg11.dtd'>
<svg id="Layer_1" xmlns="http://www.w3.org/2000/svg" xml:space="preserve" version="1.1" y="0px" x="0px" xmlns:xlink="http://www.w3.org/1999/xlink" viewBox="100 100 300 300" enable-background="new 100 100 300 300">
	<path d="m376.4 185.4c-3.9-6.9-8.5-13.5-13.9-19.7-4.1-5.9-8.7-11.4-13.9-16.6-16.2-19.5-35.2-32-56.9-37.2-7.7-1.9-15.6-2.8-23.4-2.8-7.9-0.5-16.1-0.5-24.9-0.2-0.6 0-1.2 0.1-1.8 0.1-2.8 0.1-5.6 0.3-8.5 0.5-26-2.7-50.4 5.3-71.2 23.7-6.6 5.8-12.3 12.1-17.3 18.6-6.4 6.9-11.9 14.5-16.6 22.8-19.4 20.2-27.9 46-24.7 75.2 1.8 15.8 6.5 30.2 12 42.4 5.1 24.3 18.9 42.3 39.3 61.7 4.4 4.1 9.3 7.9 14.8 11.3 4.6 3.3 9.4 6.1 14.5 8.5 0.4 0.3 0.9 0.6 1.3 0.8 18.1 11.2 39.2 17 61.5 17 4.1 0 8.3-0.2 12.5-0.6 16.3-1.6 31.3-5.9 44.9-12.6 22.9-8.1 42.1-21.8 56.8-40.3 22.3-17.1 34.7-41.1 36-70.5 2.1-37.4-13.7-69.9-20.5-82.1zm-74.8 192.2c-9.5 3.1-19.2 5.2-29.2 6.3 2.5-0.4 5-0.9 7.6-1.5 9.2-1.9 18.5-5.4 27.6-10.6 2.3-0.8 4.6-1.7 6.8-2.7s4.5-2 6.7-3.1c-5.1 3.9-10.7 7.5-16.8 10.6-0.9 0.4-1.8 0.7-2.7 1zm-159.4-43.8c2.9 3.1 6 6.2 9.2 9.1 0.3 0.3 0.6 0.6 0.8 0.9 6 8 12.8 15.3 20.4 21.5-0.8-0.4-1.5-0.9-2.3-1.3-10.6-7.7-20-17.8-28.1-30.2zm-8-163.4c1-0.9 2.1-1.8 3.1-2.7-14.1 21.1-21.1 44.6-20.4 68.8-1.1 5.6-2 10.9-2.6 16-1.4-16.3 0.1-32.3 4.5-47.1 3.2-10.4 8.4-22.7 15.4-35zm14.2-20.5c9.3-9.5 20.1-17.5 32.5-24 13.3-6.9 27.8-11.5 42.6-13.9-0.4 0.1-0.8 0.2-1.2 0.4-5.4 1.1-10.8 2.7-16.2 4.5-14.8 4-28.5 10.9-40.8 20.5-0.7 0.5-1.5 1-2.2 1.5-6.5 4.5-12.3 9.1-18.6 16 1.2-1.7 2.5-3.4 3.9-5zm165.5-25.6c-13.7-6.8-28.6-11.4-43.8-13.7 16 1.4 30.3 5.3 43.8 13.7zm20.5 16.7c-1.3-0.8-2.5-1.7-3.9-2.5-6.9-5.5-14.3-10.3-22.1-14.4-4.5-2.4-9-4.4-13.6-6.2 10.2 3.4 20 7.9 29.2 13.6 3.5 2.8 6.9 6 10.4 9.5zm10 9.2c3.7 3 7.1 6.1 10.5 9.4 5.1 7.2 9.8 15.2 14.2 24-0.7-0.9-1.4-1.8-2.1-2.7-5.2-9-11.3-17.4-18.1-25.1-1.6-2-3-3.8-4.5-5.6zm-203 14.2c6.5-5.2 14.3-10.9 22.9-16.7-20.3 19.4-35.3 42.6-41.6 64.5-1.4 4.8-2.5 9.7-3.4 14.4-0.2 1-0.5 2-0.7 3 0.5-21.1 7.1-43.5 22.8-65.2zm24.1-25.4c13.7-9.3 27.6-16.2 41.6-20.9-12.4 5.6-24.7 13.6-36.5 23.8-9.7 6.1-18.5 12.4-26 18.2 0.2-0.2 0.4-0.5 0.6-0.8 6.2-7.8 13.1-14.5 20.3-20.3zm72.3-27.6c0.8 0.1 1.7 0.3 2.6 0.4-1.6 0.4-3.2 0.7-4.8 1.1-4.2 0.1-8.5 0.3-12.6 0.8 4.9-1 9.9-1.8 14.8-2.3zm5.6-0.4c0.6-0.1 1.2-0.1 1.8-0.1-0.4 0.1-0.8 0.1-1.1 0.2-0.3 0-0.5 0-0.7-0.1zm104.3 45.7c2.2 2.8 4.3 5.9 6.5 9.1l2.4 3.6c-3-3-6.2-5.9-9.4-8.6-7.6-7.9-16.5-14-26.6-18.6-2.5-1.5-5-2.8-7.4-4.2-10.7-7.6-22.7-13.9-35.9-18.2-2.4-0.8-4.8-1.5-7.1-2.2 21.2 3.1 41.7 10.8 59.4 22 6.5 5.2 12.6 10.9 18.1 17.1zm15.6 151c1.8-5.6 3.3-11.4 4.4-17.2 1.9-5.8 3.4-11.7 4.5-17.7 1-2.6 1.9-5.2 2.7-7.8 0.1 14.1-3.4 28.3-11.6 42.7zm-87.3 67.9c-4.1 0.8-8.3 1.3-12.6 1.8-0.4 0-0.8-0.1-1.1-0.1 30.2-5.7 58.9-20.3 80.2-41-9.1 11.6-20.3 21-33.3 27.8-11.4 4.9-22.4 8.7-33.2 11.5zm33.9-10.2c4.5-1.9 9-3.9 13.6-6.1-4.6 3.6-9.3 6.9-14 9.7-2.3 1.1-4.7 2.2-7.2 3.2-8.5 2.6-17.4 4.2-26.6 4.8 0.2-0.1 0.4-0.1 0.6-0.2 12.2-2.1 23.4-6 33.6-11.4zm-189.3-138.4c5.9-22.7 16.5-41.9 30.8-56.4-15.4 23.7-24.4 51.5-25.6 78.9-0.1 0.4-0.1 0.7-0.1 1-0.9 7.5-0.8 15.1-0.1 22.6-3.8-10.5-6.2-21.8-7-33.5 0.5-4.2 1.2-8.4 2-12.6zm51-84c3.1-1.9 6.4-3.9 9.6-5.8-3.9 3.1-7.7 6.4-11.3 10.1-5.4 5.6-10.3 11.6-14.8 17.8-12.4 11.1-22.4 25.3-29.4 42.2 7.5-21.7 23.2-44.2 43.9-62.6 0.7-0.7 1.3-1.2 2-1.7zm202.3 101.7c-2.1-9-5.3-18.1-9.5-27.5-3.3-18.8-11.3-36.4-22.9-51.7 1.3 1.1 2.6 2.3 3.9 3.4 7 6.5 13.6 14.2 19.4 23 0.7 1.8 1.3 3.6 2 5.4 5.1 14.9 7.4 31 7.1 47.4zm-4.4 30.9c1-13.6-0.1-27.7-3.4-41.5v-0.2c-0.1-3.8-0.4-7.5-0.8-11.2 3.9 9.6 6.8 18.9 8.4 28.1-0.4 7.2-1.3 14.5-2.8 21.6-0.5 1-0.9 2.1-1.4 3.2zm-0.2 3.8c-0.1 0.2-0.1 0.4-0.2 0.6 0-0.1 0-0.2 0.1-0.4 0 0 0.1 0 0.1-0.2zm-109.9-149.5c7.1 0.6 13.9 1.4 20.4 2.4 5.3 1.3 10.6 3.2 15.7 5.6-23.4-7.4-49.3-8.3-74.7 1.2-1.6 0.1-3.2 0.2-4.8 0.4 13.8-6.2 27.6-9.5 41-9.7 0.7-0.1 1.5 0 2.4 0.1zm91.5 61.2c-11.3-19.4-24.4-34.6-39.1-45.2 8.8 4.2 17.1 9.4 24.5 15.2 12.4 14.7 21.3 32 25.5 50.5-3.2-6.6-6.9-13.5-10.9-20.5zm12.1 26.4c0.5 3.3 1 6.6 1.3 9.9-9.3-31.3-30.8-59.8-67.6-74.3-24.4-9.6-47.4-14.3-68.5-14.3-0.9 0-1.9 0-2.8 0.1 27-8.9 54.6-6.1 78.6 3.6 17.3 10.4 32.8 27 45.7 49.4 5.1 8.7 9.6 17.3 13.3 25.6zm-58.3-76.3c-4.7-2.8-9.4-5.1-14.4-7.1 9.2 1.9 17.7 4.3 25.6 7.6 5.7 4.4 11 9.1 15.9 14.3-8.4-5.8-17.5-10.9-27.1-14.8zm-167.9 76.3c-2.3 18-1.5 38.4 2.7 60.6 3.1 17.1 10.2 33 20.2 46.9-5.1-4.8-9.8-9.9-14-15.2-5.9-7.5-11.3-16.2-15.7-25.7-0.4-1.9-0.8-3.8-1.1-5.7-0.8-4.8-1.4-9.6-1.6-14.5 0-12 1.7-23.9 5-35.2 1.3-3.9 2.8-7.6 4.5-11.2zm79.6-76.7c-6.4 2.7-12.8 6.1-19.1 10.3-25.4 16.8-44.5 35.9-56.7 56.4 5.1-10.1 11.8-19.4 19.8-27.6 16.9-17.2 34.2-30.2 51.4-38.6 1.6-0.2 3.1-0.4 4.6-0.5zm-4.9-0.9c-13.5 1.8-26 5.7-37.4 11.9-2.4 1.3-4.7 2.7-7 4.2 18.4-17.6 44.5-26.7 76.3-26.7h2.1c-11.2 1.4-22.6 5-34 10.6zm-36.7 13c10-5.4 21-9.1 32.8-11.1-16.1 8.5-32.2 20.8-48 37-7.6 7.7-13.9 16.3-18.9 25.7 3.9-17 11.1-31.6 21.5-43.4 3.9-3 8.2-5.7 12.6-8.2zm-36.7 56.4c-2.9 6-5.3 12.3-7.2 18.8-0.9 2.7-1.8 5.3-2.5 8 3.4-24.7 13-49.2 27.7-70 0.2-0.1 0.3-0.3 0.5-0.4-9 12-15.3 26.7-18.5 43.6zm6.5 101.2c5.7 7.3 12.3 14.1 19.6 20.3 4.2 5.1 8.8 10 13.9 14.5-22.4-11.5-38.5-27.9-46.2-54.3 3.6 6.7 7.9 13.3 12.7 19.5zm25.6 25.1c20.1 15.1 45.1 25.2 72 25.2 15.2 0 31-3.2 46.9-10.5 28.6-13.1 50.8-29.5 66.1-48.6-6.8 18.8-17.1 33.9-30.8 44.9-24.7 19.8-59.3 25-99.9 14.9-15.3-3.8-29.3-8.2-41.5-13.9-4.5-3.7-8.8-7.7-12.8-12zm118.4 13.4c-46.4 21.2-91.9 7.3-123.5-19.2-12.2-15-20.8-32.7-24.3-52-4.4-23.8-5-45.3-2.1-64.2 11.8-22.4 31.8-43.2 59.3-61.3 7.5-5 15.2-8.8 22.9-11.8 22.8-1.2 48.2 3.4 75.2 14.1 38.8 15.2 60.4 46.4 68.5 79.7 0.6 24-2.1 45.3-8 63.3-15 20.3-38 37.7-68 51.4zm77.5-107.9c2.4 12.8 2.9 25.8 1.6 38.2-2.4 5-5.3 9.9-8.5 14.6 4.6-15.5 6.9-33.2 6.9-52.8zm-19.8-73.2c-2.9-2.7-5.9-5.3-9.1-7.7-4.8-5.7-10.2-11.1-16-15.9 8.5 5.1 16.9 10.9 24.7 17.4 6.3 6.5 11.7 14.3 16 23.7-4.5-6.3-9.8-12.1-15.6-17.5zm-35.7-29.7c-9.4-3.3-19.6-5.6-30.6-7.3-3.4-0.8-6.8-1.5-10.2-1.9-4.3-0.5-8.6-0.8-12.9-0.7-40.9-3.1-73.7 7.5-94.9 30.9-0.3 0.3-0.5 0.7-0.8 1-0.5 0.4-1 0.7-1.5 1.1 3.5-4.5 7.2-8.9 11.2-13 7.4-7.6 15.7-13.9 24.8-18.9 4.2-2.1 8.5-4.1 12.8-5.9 14.9-5.7 31.5-8.1 49-7.1 14 4.3 33.4 11.3 53.1 21.8zm-40.6-19.2c2.3 0.7 4.6 1.3 6.9 2.1 8.1 2.7 15.8 6.1 23 10.2-10.6-5-20.8-9.1-29.9-12.3zm-22.8-4.2c-7.1 0.2-14 0.9-20.7 2.2 3.3-1 6.5-1.9 9.9-2.7 3.5-0.1 7.1 0.1 10.8 0.5zm-5.7-1.7c0.8-0.2 1.6-0.3 2.5-0.5 1.3 0.3 2.5 0.5 3.8 0.9-2.1-0.2-4.2-0.3-6.3-0.4zm-33.1 8.9c-4.8 1.8-9.3 3.9-13.7 6.3-5.3 2.7-10.4 5.4-15.4 8.3 11.9-9.2 24.3-16.2 36.5-20.6 4.7-0.8 9.5-1.4 14.3-1.6-7.3 2.1-14.6 4.7-21.7 7.6zm-58.9 215.4c-3.3-5.1-6.4-10.5-9.1-16.2-3.1-6.6-5.7-13.3-7.7-20.1 6 15.1 15.4 29.7 27.9 43.2 4.5 4.8 8.9 9.1 13.2 12.9-5.7-3.3-11-7-16-10.9-2.9-2.8-5.6-5.8-8.3-8.9zm18.3 17.8c3.6 2.3 7.4 4.5 11.2 6.5 1.9 1.6 3.9 3.1 5.9 4.6-4.4-2.4-8.8-5.1-12.9-8-1.5-0.9-2.8-2-4.2-3.1zm17.3 9.5c15.7 7.4 33.1 12.2 50.8 13.9h-2.4c-13.9 0-27.3-2.8-40-8.1-2.7-1.7-5.5-3.6-8.4-5.8zm-5.2-4.1c-5.9-4.8-11.9-10.6-18.1-17.2-9.5-10.2-17.2-21-22.9-32.2 9.9 17.3 24.7 29 43.6 37.8 17.4 14.1 38.8 24 62.4 27.9 1.9 0.3 3.8 0.6 5.6 0.8-0.7 0.1-1.3 0.1-2 0.2-24.1-0.3-48-6.6-68.6-17.3zm76.3 16.3c-3.7-0.3-7.4-0.8-11.2-1.5-21.4-3.6-41-12.2-57.3-24.3 11.1 4.6 23.4 8.3 36.6 11.7 41 10.2 76 5 101.1-15.2 14.9-11.9 25.8-28.7 32.6-49.5 3.6-4.8 6.7-9.7 9.4-14.8-0.1 0.4-0.1 0.8-0.2 1.3-0.2 1.9-0.6 3.7-0.9 5.6-4.3 13.6-10.4 26.6-18.2 38.4-22.9 25.4-56.6 43-91.9 48.3zm107.3-74.8c-1.1 3.9-2.4 7.7-3.9 11.6-1 1.6-2.2 3.1-3.3 4.8-0.7 0.9-1.3 1.8-2 2.7 3.4-6.1 6.5-12.5 9.2-19.1zm10.6-39.4c-0.1 0.5-0.3 1-0.4 1.5 0.3-2.2 0.6-4.5 0.8-6.8 0.1 1 0.2 1.9 0.2 2.8-0.2 0.9-0.4 1.7-0.6 2.5zm0.9-12.2c1-18.3-1.1-36.4-6.7-53.1 1.9 3.3 3.8 6.6 5.4 10.1 4.4 16.3 5.1 32.6 2 48.2-0.1-1.7-0.4-3.5-0.7-5.2zm-9.1-59.7c-3.4-8.5-7.5-15.9-12.3-22.3 2.2 2.1 4.3 4.2 6.3 6.4 4.7 8.1 8.5 16.3 11.4 24.6-1.7-2.9-3.5-5.9-5.4-8.7zm-97.6-74.9c-3.2-0.4-6.4-0.7-9.6-0.9-0.6-0.1-1.1-0.2-1.8-0.3-2-0.6-3.9-1.2-5.7-1.7-1.3-0.4-2.5-0.7-3.8-1 2.5-0.4 5.1-0.7 7.7-1 18 0.8 35.8 5.6 52.6 14.3 3.8 2 7.6 4.2 11.2 6.5-15.6-8-32.9-13.6-50.6-15.9zm-147.8 166.6c-2.4-11-3.2-22.5-2.5-34.5 1.4 10.8 4.4 21.5 8.7 31.8 0.2 1.4 0.5 2.8 0.8 4.2 2 12.8 5.9 25.5 11.7 37.7 1.1 2.2 2.2 4.5 3.4 6.7-8.2-11.3-14.6-23.9-19.4-37-1.1-2.8-1.9-5.8-2.7-8.9zm-3.4-11.8c-0.8-3.8-1.5-7.6-1.9-11.4 0.3-4 0.8-8.2 1.5-12.5-0.6 8.2-0.4 16.1 0.4 23.9zm53.9 88.7c5.7 4.1 11.6 7.6 17.8 10.5 1.6 0.8 3.1 1.6 4.8 2.3 3.1 1.9 6.1 3.6 9.1 5.1-8.5-2.2-16.4-5.1-23.6-8.6-7.4-5.3-14.2-11.6-20.3-18.8 3.9 3.3 7.9 6.5 12.2 9.5zm39.4 19.7c-1.3-0.5-2.7-1.1-4.1-1.7 2.3 0.8 4.7 1.6 7 2.3-0.9-0.2-1.9-0.4-2.9-0.6zm1.8-1.2c7 1.5 14.1 2.2 21.3 2.2h0.2c4.9 0 9.8-0.2 14.6-0.7 2 0 4 0 6-0.1 2.4-0.1 4.8-0.2 7.3-0.4-10.9 2.1-21.3 3.1-31.2 3-1.1-0.1-2.4-0.2-3.5-0.3-5-1-9.9-2.3-14.7-3.7zm57.1 0.8c6.8-0.1 13.5-0.8 20-2-13.2 3.7-27.8 5.7-42.8 5.8 7.4-0.7 15-2 22.8-3.8zm59.6-22c1.5-0.7 3-1.5 4.4-2.2-3.1 2.4-6.5 4.6-9.9 6.8 1.8-1.5 3.6-3 5.5-4.6zm4-3.6c4.7-4.4 9.3-9.2 13.7-14.5-2.8 4.2-5.9 8.2-9.3 12.1-1.5 0.8-3 1.6-4.4 2.4zm14.4-17.5c-6.1 7.4-12.6 14.2-19.3 20-2.8 1.4-5.6 2.8-8.5 4.1 10.5-7.1 19.7-16 27-26.5 0.8-1.2 1.6-2.4 2.5-3.6 2.8-3.1 5.4-6.3 7.9-9.6-1.4 3.1-3 6.3-4.7 9.3-1.4 2-3.1 4.2-4.9 6.3zm13.7-21.6c11.9-18.2 16.2-35.8 15.1-53.7 3.7-14.8 3.9-30.3 0.7-45.9 2.5 6.2 4.6 12.8 6.1 19.5 0.4 8.8 0 18-1.1 27.4-2.4 19.1-10.7 40.1-23.6 59.5 1-2.2 2-4.5 2.8-6.8zm21.3-88.6c-1.9-6.5-4.4-12.9-7.5-19.2-2.5-8.9-6-17.7-10.6-26.4 0.5 0.6 1 1.3 1.5 1.9 7.3 12.6 12.8 26.2 16.2 40.3 0.2 1.2 0.4 2.3 0.4 3.4zm-229.7-76.6c-3 3-5.7 6.2-8.5 9.6-1.3 1.6-2.6 3.3-3.8 5-0.7 0.5-1.4 1.1-2.1 1.6-0.5 0.4-1.1 0.9-1.6 1.3 5.9-7.6 11-13 16-17.5zm-37.8 117.2c1.2 6.8 2.9 13.7 5.1 20.4 2 8.3 4.8 16.3 8.5 23.9 1.2 3 2.5 5.8 3.9 8.6-5.5-8-11-17.7-15.7-28.3-1.5-7.5-2.1-15.6-1.8-24.6zm22.8 60.2c0.1 0.2 0.2 0.4 0.4 0.5-0.1-0.1-0.1-0.1-0.1-0.2-0.1-0.1-0.1-0.1-0.1-0.2 0 0-0.1 0-0.2-0.1zm90.7 57.1c3.9 0.7 7.7 1.3 11.6 1.8-5.4-0.2-10.6-0.8-15.8-1.9 1.3 0 2.8 0 4.2 0.1zm14.1 0.6c18.3 0.3 36.1-2.2 51.5-7.1-4.7 1.9-9.5 3.3-14.2 4.2-8.3 1.7-16.2 3-23.8 3.6-4.5 0-9.1-0.3-13.5-0.7zm75.1-17.5c4.2-2.4 8.1-4.8 11.9-7.4-1 0.9-1.9 1.8-3 2.7-2.9 1.6-5.8 3.2-8.9 4.7zm18.1-11.5l1.5-1.5c1.1-0.9 2.3-1.8 3.4-2.7 1.2-0.7 2.4-1.3 3.7-2-3.4 3-6.9 5.8-10.5 8.3 0.5-0.6 1.2-1.3 1.9-2.1zm12.8-10.2c-0.9 0.5-1.9 1-2.8 1.6 6.2-5.6 11.7-11.6 16.6-18-4.2 5.9-8.8 11.4-13.8 16.4zm22.4-32.2c1.6-3.1 3.1-6.1 4.5-9.1-1.2 3-2.8 6.1-4.5 9.1zm12.3-33c-4.2 13.9-10.8 28.4-19.7 43.4l0.7 0.4c-6.1 8.7-13.4 16.8-22 24.1 4.5-5.7 8.5-11.8 12-18.3 15.9-21.6 26.4-45.8 29-67.6 0.8-6.5 1.2-12.8 1.3-19.1 0.8 5.7 1.2 11.6 1.1 17.6-0.3 6.7-1 13.2-2.4 19.5zm3.8-19.1c0.1-2.4 0.2-4.9 0.2-7.4-0.1-10.5-1.3-20.9-3.8-31.1-0.7-5.7-1.8-11.4-3.1-16.8 0.5 1.3 1.1 2.5 1.6 3.8 6.7 17 8.3 35.3 5 54.9 0.1-1.1 0.1-2.2 0.1-3.4zm-7.2-51.3c-2.2-6.6-4.8-13.1-8-19.3 0.4 0.5 0.7 1.1 1 1.6 0.4 0.8 0.7 1.5 1 2.3l0.3-0.1c0.9 1.5 1.8 3 2.5 4.5 1.4 3.6 2.4 7.3 3.2 11zm-5.6-18.4c-4.2-9.1-8.7-17.4-13.5-25 0.2 0.3 0.5 0.6 0.8 0.8 5.3 7.6 9.6 15.8 13 24.6-0.2-0.1-0.3-0.2-0.3-0.4zm-26.5-40.7c0.8 1 1.7 2.1 2.5 3.1-3.2-2.9-6.6-5.6-10.2-8.2-2.4-2.7-4.8-5.3-7.3-7.6 5.5 4 10.5 8.2 15 12.7zm-9.6-10.4c-2.2-1.8-4.6-3.5-7-5.2-1.9-1.3-3.9-2.7-5.9-3.9-8-6.5-16.3-11.3-24.9-14.7 13.8 4.8 26.4 12.7 37.8 23.8zm-114.6-29.2h2.2c-15.8 2.2-31.2 7-45.4 14.3-8 4.2-15.4 9-22.2 14.5 16.8-16.7 38.6-28.8 65.4-28.8zm-89.7 57.7c-0.4 0.7-0.8 1.3-1.1 2l-0.4 0.4c0.5-0.9 1-1.6 1.5-2.4zm-8.3 11.5c-10.6 20.7-16.3 45.2-16.5 72.6-0.1 7.9 0.4 15.2 2.4 24.4-10.3-30.8-11.4-67.1 14.1-97zm-15.1 72.6c0.2-29.4 6.8-55.5 19.1-77l1-1c-6.8 12.8-10.8 24.3-12.7 30.8-5.1 16.9-6.2 35.6-3.8 54.3-0.6 7.9-0.6 15.3 0.1 22.1-3.2-11.5-3.8-20.1-3.7-29.2zm8.3 46.5c6.6 13.1 13.7 23 18 28.5 4.7 8.3 9.8 15.6 15.5 22.1-16.3-16-27.9-31.4-33.5-50.6zm140.8 90.7c-24.3 2.3-47-2.1-66.6-12.3 7.1 2.5 14.7 4.3 22.7 5.3 9.4 3 18.9 4.2 28.9 4.2 3.8 0 7.7-0.2 11.7-0.5h1.1c12.3 0 24.7-1.5 36.6-4.7-10.4 4-21.8 6.7-34.4 8zm54.2-16.4c5.1-3.2 10-6.8 14.6-10.8 7.5-4.5 14.5-10 20.9-16.2 0.2-0.1 0.3-0.2 0.5-0.3l0.2-0.1c2.4-1.4 4.7-2.8 6.9-4.4-11.9 13.6-26.4 24.3-43.1 31.8zm46.5-36.1c-2.3 1.8-4.7 3.4-7.3 5 6.6-7.1 12.5-15.1 17.5-23.9 7.6-13.3 12.6-27.2 15-41.2 6.8-24.6 6-47.4-2.2-68.4-1.5-3.8-3.2-7.4-5.1-10.9-2.4-7.4-5.4-14.5-9-21.1 2.2 3.1 4.2 6.3 6 9.6 5.8 10.4 11.7 24.2 15.6 39.5 2.6 16.7 2 27.1 0.1 38.2-4.6 29.1-15.1 53.8-30.6 73.2zm4.6-3.7c13.7-18.8 23-42.1 27.5-69.1 1.3-7.7 2-15.1 1.5-24.5 5.3 32 0.8 68-29 93.6z" fill="#fff"/>
	<circle cy="252.9" cx="255.1" r="131" fill="#FFE600"/>
	<path d="m369.9 188.7c-3.7-6.5-8.1-12.8-13.1-18.6-3.9-5.6-8.2-10.9-13.1-15.8-15.3-18.5-33.4-30.4-54-35.3-7.4-1.8-14.8-2.6-22.2-2.7-7.4-0.5-15.2-0.5-23.6-0.2-0.5 0-1.1 0.1-1.7 0.1-2.7 0.1-5.3 0.2-8 0.5-24.7-2.6-47.8 5-67.6 22.4-6.2 5.5-11.7 11.5-16.4 17.6-6 6.5-11.3 13.8-15.7 21.6-18.4 19.2-26.4 43.7-23.4 71.4 1.6 14.9 6.1 28.6 11.4 40.2 4.8 23 18 40.2 37.3 58.5 4.1 3.9 8.8 7.5 14 10.6 4.4 3.1 9 5.8 13.8 8 0.4 0.2 0.8 0.5 1.3 0.8 17.2 10.6 37.2 16.2 58.3 16.2 3.9 0 7.9-0.2 11.9-0.5 15.5-1.5 29.8-5.6 42.7-12.1 21.7-7.7 39.9-20.7 53.8-38.1 21.1-16.2 32.9-39 34.2-66.9 1.5-35.3-13.4-66.1-19.9-77.7zm-71 182.3c-9 3-18.3 5-27.7 5.9 2.4-0.4 4.8-0.8 7.2-1.3 8.8-1.8 17.5-5.1 26.2-10 2.2-0.8 4.4-1.6 6.5-2.5s4.2-1.9 6.3-3c-4.8 3.8-10.2 7.1-15.9 10-0.9 0.3-1.7 0.6-2.6 0.9zm-151.1-41.5c2.7 3 5.7 5.9 8.8 8.6l0.8 0.8c5.7 7.6 12.2 14.5 19.4 20.4-0.7-0.4-1.5-0.8-2.2-1.3-10.3-7.2-19.2-16.7-26.8-28.5zm-7.6-155c1-0.9 1.9-1.8 3-2.6-13.4 20-20 42.3-19.4 65.3-1.1 5.3-1.9 10.4-2.5 15.2-1.3-15.4 0.1-30.7 4.2-44.6 3.1-9.9 8-21.6 14.7-33.3zm13.4-19.5c8.8-9 19.1-16.6 30.9-22.7 12.6-6.5 26.3-10.9 40.4-13.1-0.4 0.1-0.8 0.2-1.1 0.3-5.1 1.1-10.3 2.5-15.4 4.3-14 3.8-27 10.3-38.7 19.5-0.7 0.5-1.4 0.9-2.1 1.4-6.1 4.2-11.6 8.7-17.7 15.2 1.2-1.7 2.4-3.3 3.7-4.9zm157.1-24.3c-13-6.5-27.1-10.8-41.6-13 15.2 1.4 28.7 5.1 41.6 13zm19.4 15.9c-1.2-0.8-2.4-1.6-3.7-2.4-6.5-5.2-13.6-9.8-20.9-13.7-4.2-2.2-8.6-4.2-12.9-5.9 9.7 3.2 19 7.5 27.6 12.9 3.3 2.7 6.6 5.8 9.9 9.1zm9.5 8.7c3.4 2.8 6.8 5.8 9.9 9 4.8 6.8 9.3 14.5 13.5 22.7-0.7-0.8-1.3-1.7-1.9-2.5-4.9-8.5-10.7-16.5-17.2-23.8-1.5-1.9-2.9-3.7-4.3-5.4zm-192.6 13.6c6.2-5 13.6-10.4 21.7-15.8-19.2 18.3-33.5 40.4-39.4 61.2-1.3 4.6-2.4 9.1-3.3 13.7-0.2 1-0.5 1.9-0.7 2.8 0.5-20.2 6.8-41.4 21.7-61.9zm22.9-24.2c13-8.8 26.3-15.4 39.5-19.8-11.7 5.3-23.5 12.9-34.7 22.6-9.2 5.8-17.5 11.7-24.7 17.2 0.2-0.2 0.4-0.5 0.5-0.7 6-7.4 12.5-13.8 19.4-19.3zm68.5-26.1c0.8 0.1 1.6 0.2 2.4 0.4-1.5 0.3-3 0.7-4.5 1-4.1 0-8 0.2-12 0.7 4.7-1 9.5-1.7 14.1-2.1zm5.3-0.4c0.5 0 1.1-0.1 1.6-0.1-0.4 0.1-0.7 0.1-1 0.2-0.2 0-0.4-0.1-0.6-0.1zm99 43.3c2.1 2.7 4.1 5.6 6.2 8.6 0.8 1.1 1.5 2.3 2.2 3.4-2.8-2.8-5.9-5.6-9-8.1-7.2-7.6-15.6-13.2-25.2-17.7-2.4-1.4-4.7-2.7-7-4-10.2-7.3-21.7-13.1-34.1-17.3-2.2-0.7-4.5-1.5-6.8-2.1 20.1 2.9 39.5 10.3 56.4 20.9 6.3 5 12.1 10.4 17.3 16.3zm14.8 143.2c1.8-5.3 3.1-10.8 4.1-16.4 1.8-5.5 3.2-11.1 4.3-16.8 1-2.4 1.8-4.9 2.5-7.4 0.2 13.6-3.1 27-10.9 40.6zm-82.8 64.5c-3.9 0.7-7.9 1.3-11.9 1.6-0.4 0-0.8-0.1-1.1-0.1 28.7-5.4 55.9-19.3 76.2-38.9-8.6 11-19.2 19.9-31.6 26.4-10.9 4.7-21.4 8.2-31.6 11zm32.1-9.7c4.3-1.8 8.6-3.7 12.9-5.8-4.4 3.4-8.8 6.5-13.2 9.3-2.2 1.1-4.5 2.1-6.8 3.1-8 2.5-16.5 4-25.2 4.6 0.2-0.1 0.4-0.1 0.5-0.2 11.5-2.2 22.2-5.9 31.8-11zm-179.5-131.4c5.6-21.5 15.7-39.8 29.3-53.6-14.6 22.5-23.2 48.9-24.4 74.8-0.1 0.4-0.1 0.8-0.1 1.1-0.8 7.1-0.8 14.3-0.1 21.4-3.6-10-5.9-20.7-6.6-31.8 0.4-3.9 1.1-7.9 1.9-11.9zm48.3-79.6c3-1.9 6-3.7 9.1-5.5-3.8 2.9-7.3 6.1-10.7 9.6-5.1 5.3-9.7 10.9-14 16.9-11.7 10.5-21.2 24.1-27.9 40 7.1-20.6 22.1-42 41.6-59.4 0.7-0.6 1.3-1.1 1.9-1.6zm191.9 96.4c-1.9-8.5-5-17.2-9-26.1-3.1-17.8-10.6-34.5-21.7-49.1 1.3 1.1 2.5 2.2 3.7 3.3 6.6 6.2 12.9 13.5 18.5 21.8 0.7 1.7 1.3 3.4 1.9 5.1 4.7 14.3 6.9 29.5 6.6 45zm-4.1 29.3c0.9-12.9-0.1-26.3-3.3-39.4v-0.2c-0.1-3.6-0.4-7.1-0.8-10.6 3.8 9.1 6.5 17.9 8 26.7-0.4 6.8-1.3 13.7-2.6 20.5-0.4 1-0.9 2-1.3 3zm-0.2 3.7c-0.1 0.2-0.1 0.4-0.1 0.5 0-0.1 0-0.2 0.1-0.3-0.1 0-0.1-0.1 0-0.2zm-59.3 58.8c19.2-10.8 34.6-23.4 46-37.6-6.4 17.8-16.2 32.2-29.2 42.6-23.5 18.9-56.2 23.8-94.7 14.2-14.5-3.6-27.8-7.8-39.4-13.1-4.4-3.6-8.5-7.4-12.2-11.5 19.1 14.3 42.8 23.8 68.4 23.8 9.8 0 19.8-1.4 30-4.5-1.1-0.2-2.2-0.4-3.3-0.4-37.9 10.2-73.9-2.6-99.8-24.4-11.6-14.2-19.7-31-23.1-49.4-4.2-22.6-4.8-43-1.9-60.9 11.2-21.2 30.1-41 56.2-58.2 7.1-4.7 14.4-8.4 21.7-11.2 21.7-1.1 45.7 3.3 71.3 13.4 36.8 14.5 57.3 44 65 75.6 0.5 22.7-2 43-7.6 60.1-11.3 15.2-27.3 28.7-47.6 40.2 0.2 0.3 0.2 0.8 0.2 1.3zm-45-200.6c6.7 0.6 13.1 1.3 19.3 2.3 5.1 1.3 10 3 14.8 5.3-22.1-7.1-46.8-7.9-70.8 1.1l-4.5 0.3c13.1-5.9 26.1-9 38.9-9.2 0.7 0 1.5 0 2.3 0.2zm86.8 58c-10.6-18.5-23.2-32.8-37.1-42.9 8.3 4 16.2 8.9 23.2 14.5 11.8 14 20.2 30.4 24.2 47.9-3-6.3-6.4-12.8-10.3-19.5zm11.5 25.1c0.5 3.1 1 6.2 1.2 9.4-8.8-29.6-29.2-56.7-64.1-70.5-23.1-9.1-45-13.6-65-13.6h-2.7c25.6-8.5 51.8-5.8 74.5 3.4 16.5 9.9 31.1 25.6 43.3 46.8 5 8.5 9.3 16.6 12.8 24.5zm-55.4-72.4c-4.4-2.7-9-4.9-13.7-6.7 8.7 1.8 16.8 4.1 24.3 7.1 5.4 4.1 10.5 8.7 15.1 13.6-7.8-5.5-16.5-10.3-25.7-14zm-159.1 72.3c-2.2 17.1-1.4 36.4 2.5 57.4 3 16.2 9.6 31.3 19.1 44.5-4.8-4.5-9.3-9.4-13.2-14.5-5.6-7.1-10.6-15.4-14.8-24.4-0.4-1.8-0.7-3.6-1.1-5.4-0.8-4.6-1.3-9.3-1.6-14 0-11.3 1.6-22.5 4.7-33.2 1.3-3.4 2.7-6.9 4.4-10.4zm75.4-72.8c-6.1 2.6-12.2 5.8-18.1 9.7-24.1 16-42.2 34.1-53.8 53.5 4.9-9.6 11.2-18.4 18.9-26.2 16.1-16.3 32.4-28.6 48.8-36.6 1.4-0.1 2.8-0.2 4.2-0.4zm-4.6-0.7c-12.8 1.7-24.7 5.4-35.5 11.3-2.2 1.2-4.5 2.5-6.6 3.9 17.5-16.7 42.2-25.3 72.4-25.3h2.1c-10.7 1.3-21.6 4.7-32.4 10.1zm-34.8 12.4c9.6-5.1 20-8.7 31.1-10.5-15.2 8-30.6 19.8-45.6 35-7.2 7.3-13.2 15.5-18 24.4 3.8-16.2 10.6-30 20.4-41.1 3.8-3 7.8-5.6 12.1-7.8zm-34.8 53.4c-2.8 5.7-5 11.7-6.8 17.8-0.9 2.5-1.7 5-2.4 7.6 3.3-23.4 12.3-46.6 26.3-66.4 0.1-0.1 0.3-0.2 0.4-0.4-8.6 11.4-14.5 25.3-17.5 41.4zm6.1 96c5.4 6.9 11.6 13.4 18.6 19.2 4 4.9 8.4 9.4 13.2 13.7-21.2-10.9-36.5-26.6-43.9-51.5 3.4 6.5 7.5 12.7 12.1 18.6zm210.2-65.8c2.3 12.2 2.7 24.5 1.6 36.3-2.3 4.8-5 9.4-8.1 13.9 4.3-14.8 6.4-31.7 6.5-50.2zm-18.8-69.5c-2.7-2.5-5.6-5-8.6-7.4-4.6-5.4-9.7-10.5-15.2-15.1 8.1 4.8 16 10.3 23.5 16.5 5.9 6.2 11.1 13.6 15.2 22.4-4.5-5.8-9.4-11.3-14.9-16.4zm-34-28.2c-8.9-3.1-18.6-5.3-29-6.9-3.2-0.8-6.4-1.5-9.7-1.8-4-0.5-8-0.7-12.1-0.7-38.8-3-70 7.1-90.1 29.3-0.2 0.3-0.5 0.6-0.8 0.9-0.4 0.4-0.9 0.7-1.3 1 3.3-4.3 6.8-8.4 10.6-12.3 7-7.2 14.9-13.2 23.5-17.9 4-2 8-3.8 12.2-5.6 14.2-5.4 29.8-7.7 46.5-6.8 13.2 4.2 31.7 10.9 50.2 20.8zm-38.4-18.2c2.2 0.6 4.4 1.3 6.5 2 7.7 2.6 15 5.8 21.8 9.7-10-4.8-19.7-8.7-28.3-11.7zm-21.7-4c-6.8 0.1-13.3 0.8-19.7 2.1 3.1-1 6.2-1.8 9.4-2.5 3.4-0.1 6.9 0.1 10.3 0.4zm-5.4-1.6c0.8-0.2 1.6-0.3 2.4-0.5 1.2 0.2 2.4 0.5 3.6 0.8l-6-0.3zm-31.4 8.5c-4.5 1.7-8.8 3.7-13.1 6-5 2.5-9.9 5.1-14.6 7.9 11.3-8.7 23-15.3 34.7-19.5 4.5-0.8 9-1.3 13.6-1.5-6.9 1.8-13.9 4.3-20.6 7.1zm-55.9 204.3c-3.1-4.8-6-9.9-8.6-15.3-3-6.2-5.4-12.6-7.3-19.1 5.7 14.3 14.6 28.2 26.6 41 4.2 4.5 8.4 8.7 12.5 12.3-5.4-3.1-10.5-6.6-15.2-10.3-2.8-2.8-5.4-5.6-8-8.6zm17.4 16.9c3.4 2.2 7 4.3 10.6 6.2 1.9 1.5 3.7 3 5.6 4.4-4.2-2.3-8.3-4.8-12.2-7.6-1.3-1-2.7-2-4-3zm16.5 9.1c14.9 7 31.3 11.5 48.1 13.2-0.7 0-1.3 0.1-2.1 0.1h-0.2c-13.2 0-26-2.7-37.9-7.7-2.6-1.8-5.3-3.6-7.9-5.6zm-5.1-4c-5.6-4.6-11.3-10-17.2-16.3-9-9.7-16.3-20-21.8-30.6 9.3 16.4 23.5 27.6 41.4 35.9 16.5 13.4 36.8 22.7 59.2 26.6 1.8 0.3 3.5 0.5 5.3 0.8-0.7 0.1-1.3 0.1-1.9 0.2-22.7-0.5-45.4-6.4-65-16.6zm72.5 15.5c-3.5-0.3-7.1-0.7-10.6-1.3-20.3-3.4-38.9-11.5-54.4-23 10.5 4.4 22.1 7.9 34.7 11.1 39 9.7 72.1 4.7 95.9-14.4 14.1-11.3 24.5-27.2 30.9-46.9 3.4-4.5 6.4-9.3 8.9-14.1-0.1 0.4-0.1 0.8-0.2 1.2-0.2 1.8-0.5 3.5-0.9 5.3-4.1 12.8-9.9 25.2-17.3 36.4-21.6 23.9-53.5 40.6-87 45.7zm101.7-70.9c-1 3.7-2.3 7.4-3.7 11-1 1.5-2.1 3-3.1 4.5-0.6 0.8-1.3 1.6-1.9 2.5 3.3-5.8 6.2-11.8 8.7-18zm10.1-37.4c-0.1 0.5-0.2 0.9-0.4 1.3 0.3-2.1 0.5-4.3 0.8-6.4 0.1 0.9 0.2 1.8 0.2 2.7l-0.6 2.4zm0.9-11.6c1-17.3-1-34.5-6.4-50.4 1.8 3.1 3.6 6.3 5.1 9.6 4.2 15.4 4.8 30.9 1.9 45.7-0.1-1.7-0.3-3.2-0.6-4.9zm-8.6-56.7c-3.2-8.1-7.1-15.1-11.6-21.2 2.1 1.9 4.1 4 6 6.1 4.5 7.7 8.1 15.5 10.8 23.4-1.7-2.8-3.4-5.6-5.2-8.3zm-92.7-71c-3-0.4-6.1-0.7-9.1-0.9-0.5-0.1-1.1-0.2-1.6-0.3-1.9-0.6-3.7-1.1-5.4-1.6-1.2-0.4-2.4-0.7-3.6-1 2.4-0.4 4.8-0.7 7.3-1 17.1 0.7 33.9 5.3 49.9 13.6 3.6 1.9 7.2 4 10.6 6.2-14.9-7.5-31.2-12.8-48.1-15zm-140.2 158c-2.2-10.4-3-21.4-2.4-32.7 1.3 10.2 4.1 20.4 8.2 30.1 0.2 1.3 0.5 2.7 0.8 4 1.9 12.2 5.6 24.2 11.1 35.8 1 2.1 2.1 4.2 3.2 6.3-7.8-10.8-14-22.7-18.5-35.2-0.8-2.6-1.6-5.4-2.4-8.3zm-3.2-11.3c-0.7-3.5-1.4-7.1-1.8-10.6 0.3-3.8 0.8-7.7 1.4-11.9-0.5 7.6-0.4 15.1 0.4 22.5zm50.6 83.9c5.6 4.1 11.4 7.6 17.5 10.4 1.5 0.7 3 1.5 4.5 2.1 2.9 1.8 5.8 3.4 8.7 4.8-8-2.1-15.5-4.8-22.4-8.2-7-5.1-13.5-11.1-19.3-17.9 3.5 3.2 7.2 6 11 8.8zm38 19.1c-1.3-0.5-2.6-1-3.9-1.6 2.2 0.8 4.5 1.5 6.8 2.2-1-0.3-2-0.4-2.9-0.6zm1.7-1.2c6.6 1.4 13.4 2.1 20.2 2.1h0.2c4.7 0 9.3-0.2 13.9-0.7h5.6c2.3-0.1 4.6-0.2 6.9-0.4-10.3 1.9-20.2 2.9-29.6 2.8l-3.3-0.3c-4.7-0.9-9.4-2.1-13.9-3.5zm54.2 0.8c6.4-0.1 12.8-0.8 19-1.9-12.5 3.5-26.3 5.4-40.7 5.5 7-0.7 14.2-1.9 21.7-3.6zm56.4-20.9l4.2-2.1c-3 2.2-6.2 4.4-9.4 6.4 1.8-1.4 3.5-2.7 5.2-4.3zm3.8-3.4c4.5-4.2 8.8-8.7 13-13.7-2.7 3.9-5.6 7.8-8.8 11.4-1.4 0.8-2.8 1.6-4.2 2.3zm13.8-16.6c-5.8 7.1-11.9 13.4-18.3 18.9-2.7 1.3-5.3 2.6-8 3.8 10-6.7 18.6-15.1 25.6-25.2 0.8-1.1 1.6-2.3 2.4-3.4 2.7-2.9 5.1-6 7.4-9.1-1.3 3-2.8 5.9-4.4 8.8-1.5 2.2-3.1 4.2-4.7 6.2zm13-20.5c11.3-17.2 15.4-34 14.3-50.9 3.5-14 3.7-28.7 0.7-43.5 2.4 5.9 4.4 12.1 5.8 18.5 0.4 8.3 0 17.1-1.1 26-2.2 18.1-10.2 38.1-22.4 56.4 0.9-2.1 1.8-4.3 2.7-6.5zm20.2-84c-1.8-6.2-4.2-12.3-7.1-18.1-2.4-8.4-5.7-16.8-10-25.1l1.5 1.8c6.9 11.9 12.1 24.9 15.3 38.2 0 1 0.1 2.1 0.3 3.2zm-218-72.7c-2.8 2.9-5.4 5.9-8 9.1-1.3 1.6-2.4 3.1-3.6 4.7-0.7 0.5-1.3 1-1.9 1.6-0.5 0.4-1 0.8-1.5 1.3 5.4-7.2 10.3-12.4 15-16.7zm-35.9 111.2c1.1 6.5 2.8 12.9 4.8 19.4 1.9 7.9 4.6 15.4 8.1 22.6 1.1 2.8 2.4 5.5 3.7 8.2-5.2-7.6-10.4-16.8-14.8-26.8-1.4-7.2-2-14.9-1.8-23.4zm21.7 57.1c0.1 0.2 0.2 0.4 0.4 0.5-0.1-0.1-0.1-0.1-0.1-0.2-0.1-0.1-0.1-0.1-0.1-0.2s-0.2-0.1-0.2-0.1zm85.9 54.2c3.6 0.7 7.3 1.3 11 1.7-5.1-0.2-10.1-0.8-15-1.8 1.4-0.1 2.7 0 4 0.1zm13.5 0.5c17.3 0.3 34.2-2.1 48.9-6.8-4.5 1.8-9 3.1-13.5 4.1-7.9 1.6-15.4 2.8-22.6 3.4-4.3 0-8.6-0.3-12.8-0.7zm71.2-16.6c3.9-2.2 7.7-4.6 11.3-7.1-0.9 0.8-1.9 1.7-2.8 2.5-2.7 1.7-5.6 3.2-8.5 4.6zm17.2-10.8c0.5-0.5 0.9-1 1.3-1.5 1.1-0.8 2.2-1.7 3.2-2.6 1.1-0.6 2.3-1.3 3.5-1.9-3.2 2.8-6.5 5.5-10 7.9 0.7-0.6 1.4-1.3 2-1.9zm12.1-9.8c-0.9 0.5-1.8 1-2.6 1.5 5.9-5.3 11.1-11 15.8-17.1-4 5.7-8.4 10.9-13.2 15.6zm21.4-30.5c1.5-2.9 3-5.8 4.3-8.7-1.3 2.9-2.8 5.8-4.3 8.7zm11.6-31.3c-3.9 13.2-10.2 26.9-18.7 41.1l0.7 0.4c-5.8 8.2-12.8 15.9-20.8 22.9 4.3-5.4 8.1-11.2 11.4-17.4 15.1-20.5 25-43.4 27.5-64.1 0.7-6.2 1.1-12.2 1.2-18.1 0.8 5.4 1.1 11 1 16.7-0.3 6.3-1 12.5-2.3 18.5zm3.6-18.1c0.1-2.3 0.2-4.7 0.2-7-0.1-9.9-1.3-19.8-3.6-29.5-0.7-5.4-1.7-10.8-3-15.9l1.5 3.6c6.4 16.2 7.9 33.5 4.7 52.1 0.2-1.1 0.2-2.2 0.2-3.3zm-6.8-48.6c-2.1-6.3-4.6-12.4-7.6-18.3 0.4 0.5 0.7 1 1 1.5 0.4 0.7 0.7 1.5 1 2.2l0.3-0.1 2.4 4.2c1.1 3.4 2.1 6.8 2.9 10.5zm-5.5-17.6c-3.9-8.7-8.2-16.6-12.8-23.8 0.2 0.3 0.5 0.5 0.7 0.8 5 7.3 9.1 15.1 12.3 23.4 0-0.1 0-0.2-0.2-0.4zm-25-38.5l2.4 3c-3.1-2.7-6.3-5.3-9.6-7.8-2.3-2.6-4.6-5-6.9-7.3 5.1 3.7 9.8 7.8 14.1 12.1zm-9.1-9.9c-2.1-1.7-4.4-3.3-6.7-5-1.8-1.3-3.8-2.5-5.6-3.7-7.6-6.2-15.4-10.7-23.6-13.9 13.1 4.5 25.1 12 35.9 22.6zm-108.7-27.8h2.1c-15 2.1-29.6 6.7-43.1 13.6-7.6 3.9-14.6 8.5-21.1 13.7 16-15.8 36.6-27.3 62.1-27.3zm-85.1 54.8c-0.4 0.7-0.7 1.3-1.1 1.9l-0.4 0.4c0.5-0.8 1-1.6 1.5-2.3zm-7.9 10.9c-10 19.7-15.4 42.9-15.6 68.9-0.1 7.4 0.4 14.5 2.2 23.2-9.7-29.3-10.8-63.7 13.4-92.1zm-14.4 68.9c0.2-27.9 6.5-52.6 18.1-73l0.9-0.9c-6.4 12.2-10.2 23-12.1 29.2-4.8 16-5.9 33.8-3.6 51.4-0.6 7.6-0.5 14.5 0.1 21-2.8-11-3.4-19-3.4-27.7zm8 44c6.2 12.4 13 21.8 17.1 27 4.4 7.9 9.3 14.8 14.7 20.9-15.5-15-26.5-29.6-31.8-47.9zm133.5 86.1c-23 2.2-44.6-1.9-63.2-11.7 6.8 2.4 14 4.1 21.5 5 9 2.8 18 4 27.4 4 3.6 0 7.3-0.2 11.1-0.5h1c11.7 0 23.4-1.5 34.7-4.4-9.7 3.9-20.5 6.5-32.5 7.6zm51.4-15.6c4.9-3.1 9.5-6.5 13.9-10.3 7.1-4.3 13.7-9.4 19.8-15.4 0.2-0.1 0.3-0.2 0.5-0.2l0.2-0.1c2.2-1.3 4.5-2.7 6.5-4.1-11.3 12.9-25 23-40.9 30.1zm44.2-34.2c-2.2 1.6-4.5 3.2-6.9 4.8 6.2-6.7 11.8-14.3 16.6-22.7 7.2-12.6 11.9-25.8 14.2-39.1 6.4-23.3 5.7-45-2.1-64.9-1.4-3.6-3-7-4.8-10.3-2.2-7-5.1-13.7-8.5-20 2.1 3 4 6 5.7 9.1 5.5 9.9 11.1 22.9 14.8 37.4 2.5 15.8 1.9 25.7 0.1 36.2-4.5 27.7-14.4 51.1-29.1 69.5zm4.4-3.5c13-17.8 21.9-40 26.1-65.6 1.2-7.3 1.9-14.3 1.3-23.2 5.1 30.3 0.8 64.6-27.4 88.8z"/>
		<rect y="347.4" x="151.9" fill="#0065B1" width="206.3" height="17.5"/>
		<g fill="#fff">
			<path d="m157.8 352.3h2l0.9 5.5 1-5.5h2.2l1 5.5 0.9-5.5h1.9l-1.7 7.7h-2.2l-1-5.5-1 5.5h-2.3l-1.7-7.7z"/>
			<path d="m167.9 352.3h2l0.9 5.5 1-5.5h2.2l1 5.5 0.9-5.5h1.9l-1.7 7.7h-2.2l-1-5.5-1 5.5h-2.3l-1.7-7.7z"/>
			<path d="m178 352.3h2l0.9 5.5 1-5.5h2.2l1 5.5 0.9-5.5h1.9l-1.7 7.7h-2.2l-1-5.5-1 5.5h-2.3l-1.7-7.7z"/>
			<path d="m190.2 357.8v2.2h-1.9v-2.2h1.9z"/>
			<path d="m191.7 349.6h2v1.7h-2v-1.7zm0 2.7h2v7.7h-2v-7.7z"/>
			<path d="m195.1 352.3h1.9v0.9c0.4-0.8 1.1-1.1 2-1.1 1.2 0 2 0.7 2 2.2v5.7h-2v-5.3c0-0.8-0.2-1.1-0.8-1.1-0.7 0-1 0.4-1 1.3v5.1h-2l-0.1-7.7z"/>
			<path d="m202.4 349.6h2v1.7h-2v-1.7zm0 2.7h2v7.7h-2v-7.7z"/>
			<path d="m209.4 355.1c0-0.7-0.1-1.6-0.9-1.6-1 0-1.1 0.8-1.1 2.7s0.2 2.7 1.1 2.7c0.7 0 1-0.5 1-1.8h1.9c0 2.1-0.8 3.1-3 3.1-2 0-3-1-3-4.1 0-3.2 1.3-4.1 3.1-4.1s2.8 1.1 2.8 3h-1.9v0.1z"/>
			<path d="m212.5 349.6h2v1.7h-2v-1.7zm0 2.7h2v7.7h-2v-7.7z"/>
			<path d="m215.9 354.6v-0.2c0-1.8 1.2-2.4 2.7-2.4 2.4 0 2.8 1 2.8 2.4v4.1c0 0.7 0.1 1 0.2 1.5h-1.9c-0.1-0.2-0.2-0.5-0.2-0.8-0.5 0.8-1 1-2 1-1.4 0-1.9-1.1-1.9-2.2 0-1.5 0.6-2.1 1.9-2.4l1.1-0.3c0.6-0.2 0.8-0.4 0.8-0.9 0-0.6-0.2-1-0.9-1-0.6 0-0.9 0.4-0.9 1v0.2h-1.7zm3.6 1.5c-0.3 0.2-0.6 0.3-0.8 0.4-0.8 0.2-1.1 0.5-1.1 1.3 0 0.6 0.2 1.1 0.7 1.1s1.2-0.4 1.2-1.2v-1.6z"/>
			<path d="m223.2 350h2v2.2h1.1v1.3h-1.1v4.2c0 0.6 0.1 0.8 0.7 0.8h0.4v1.4c-0.4 0.1-0.8 0.1-1.3 0.1-1.6 0-1.8-0.5-1.8-2.1v-4.4h-1v-1.3h1v-2.2z"/>
			<path d="m227.1 349.6h2v1.7h-2v-1.7zm0 2.7h2v7.7h-2v-7.7z"/>
			<path d="m234.2 352.3h2l-1.9 7.7h-2.3l-2-7.7h2.1l1.1 5.6 1-5.6z"/>
			<path d="m236.7 354.6v-0.2c0-1.8 1.2-2.4 2.7-2.4 2.4 0 2.8 1 2.8 2.4v4.1c0 0.7 0.1 1 0.2 1.5h-1.9c-0.1-0.2-0.2-0.5-0.2-0.8-0.5 0.8-1 1-2 1-1.4 0-1.9-1.1-1.9-2.2 0-1.5 0.6-2.1 1.9-2.4l1.1-0.3c0.6-0.2 0.8-0.4 0.8-0.9 0-0.6-0.2-1-0.9-1-0.6 0-0.9 0.4-0.9 1v0.2h-1.7zm3.5 1.5c-0.3 0.2-0.6 0.3-0.8 0.4-0.8 0.2-1.1 0.5-1.1 1.3 0 0.6 0.2 1.1 0.7 1.1s1.2-0.4 1.2-1.2v-1.6z"/>
			<path d="m247.4 359.3c-0.4 0.6-1 0.9-1.7 0.9-1.6 0-2.4-1.2-2.4-4.1s0.7-4.1 2.4-4.1c0.8 0 1.3 0.3 1.8 1v-0.8h1.9v10.3h-1.9v-3.2zm-1-5.7c-0.8 0-1 0.8-1 2.5s0.2 2.5 1 2.5c0.9 0 1-0.8 1-2.5s-0.1-2.5-1-2.5z"/>
			<path d="m254.8 359.1c-0.4 0.8-1.1 1.1-2 1.1-1.2 0-2-0.7-2-2.2v-5.7h2v5.3c0 0.8 0.2 1.1 0.8 1.1 0.7 0 1-0.4 1-1.3v-5.1h2v7.7h-1.9l0.1-0.9z"/>
			<path d="m259.7 356.4v0.6c0 0.9 0.2 1.8 1 1.8 0.7 0 0.9-0.5 1-1.5h1.8c-0.1 1.8-0.9 2.8-2.8 2.8-2.9 0-3-2.2-3-4.1 0-2.1 0.4-4 3.1-4 2.3 0 2.8 1.6 2.8 3.9v0.4l-3.9 0.1zm2-1.2c-0.1-1.2-0.2-1.8-1-1.8s-1 0.8-1 1.5v0.3h2z"/>
			<path d="m266.1 357.5v0.2c0 0.7 0.4 1.1 1 1.1s1-0.3 1-0.9c0-0.5-0.3-0.7-0.7-0.9l-1.4-0.5c-1.1-0.4-1.6-1.1-1.6-2.2 0-1.3 0.8-2.4 2.8-2.4 1.8 0 2.7 0.8 2.7 2.2v0.3h-1.8c0-0.8-0.2-1.1-0.9-1.1-0.5 0-0.9 0.3-0.9 0.8 0 0.4 0.2 0.7 0.8 0.9l1.2 0.4c1.3 0.4 1.7 1 1.7 2.2 0 1.6-1.2 2.4-2.9 2.4-2.2 0-2.8-1-2.8-2.5v-0.3l1.8 0.3z"/>
			<path d="m271 354.6v-0.2c0-1.8 1.2-2.4 2.7-2.4 2.4 0 2.8 1 2.8 2.4v4.1c0 0.7 0.1 1 0.2 1.5h-1.9c-0.1-0.2-0.2-0.5-0.2-0.8-0.5 0.8-1 1-2 1-1.4 0-1.9-1.1-1.9-2.2 0-1.5 0.6-2.1 1.9-2.4l1.1-0.3c0.6-0.2 0.8-0.4 0.8-0.9 0-0.6-0.2-1-0.9-1-0.6 0-0.9 0.4-0.9 1v0.2h-1.7zm3.7 1.5c-0.3 0.2-0.6 0.3-0.8 0.4-0.8 0.2-1.1 0.5-1.1 1.3 0 0.6 0.2 1.1 0.7 1.1s1.2-0.4 1.2-1.2v-1.6z"/>
			<path d="m278 349.7h2v10.3h-2v-10.3z"/>
			<path d="m285.1 352.3h2l-1.9 7.7h-2.3l-2-7.7h2.1l1.1 5.6 1-5.6z"/>
			<path d="m287.5 354.6v-0.2c0-1.8 1.2-2.4 2.7-2.4 2.4 0 2.8 1 2.8 2.4v4.1c0 0.7 0.1 1 0.2 1.5h-1.9c-0.1-0.2-0.2-0.5-0.2-0.8-0.5 0.8-1 1-2 1-1.4 0-1.9-1.1-1.9-2.2 0-1.5 0.6-2.1 1.9-2.4l1.1-0.3c0.6-0.2 0.8-0.4 0.8-0.9 0-0.6-0.2-1-0.9-1-0.6 0-0.9 0.4-0.9 1v0.2h-1.7zm3.7 1.5c-0.3 0.2-0.6 0.3-0.8 0.4-0.8 0.2-1.1 0.5-1.1 1.3 0 0.6 0.2 1.1 0.7 1.1s1.2-0.4 1.2-1.2v-1.6z"/>
			<path d="m298.1 352.3h2l-1.9 7.7h-2.3l-2-7.7h2.1l1.1 5.6 1-5.6z"/>
			<path d="m300.9 349.6h2v1.7h-2v-1.7zm0 2.7h2v7.7h-2v-7.7z"/>
			<path d="m308.3 359.2c-0.5 0.7-1 1-1.8 1-1.6 0-2.4-1.2-2.4-4.1s0.7-4.1 2.4-4.1c0.7 0 1.3 0.3 1.7 0.9v-3.3h2v10.4h-1.9v-0.8zm-1.2-0.5c0.9 0 1-0.8 1-2.5s-0.2-2.5-1-2.5c-0.8 0-1 0.8-1 2.5 0 1.6 0.2 2.5 1 2.5z"/>
			<path d="m311.5 354.6v-0.2c0-1.8 1.2-2.4 2.7-2.4 2.4 0 2.8 1 2.8 2.4v4.1c0 0.7 0.1 1 0.2 1.5h-1.9c-0.1-0.2-0.2-0.5-0.2-0.8-0.5 0.8-1 1-2 1-1.4 0-1.9-1.1-1.9-2.2 0-1.5 0.6-2.1 1.9-2.4l1.1-0.3c0.6-0.2 0.8-0.4 0.8-0.9 0-0.6-0.2-1-0.9-1-0.6 0-0.9 0.4-0.9 1v0.2h-1.7zm3.6 1.5c-0.3 0.2-0.6 0.3-0.8 0.4-0.8 0.2-1.1 0.5-1.1 1.3 0 0.6 0.2 1.1 0.7 1.1s1.2-0.4 1.2-1.2v-1.6z"/>
			<path d="m319.9 357.5v0.2c0 0.7 0.4 1.1 1 1.1s1-0.3 1-0.9c0-0.5-0.3-0.7-0.7-0.9l-1.4-0.5c-1.1-0.4-1.6-1.1-1.6-2.2 0-1.3 0.8-2.4 2.8-2.4 1.8 0 2.7 0.8 2.7 2.2v0.3h-1.9c0-0.8-0.2-1.1-0.9-1.1-0.5 0-0.9 0.3-0.9 0.8 0 0.4 0.2 0.7 0.8 0.9l1.2 0.4c1.3 0.4 1.7 1 1.7 2.2 0 1.6-1.2 2.4-2.9 2.4-2.2 0-2.8-1-2.8-2.5v-0.3l1.9 0.3z"/>
			<path d="m326.9 357.8v2.2h-1.9v-2.2h1.9z"/>
			<path d="m332 355.1c0-0.7-0.1-1.6-0.9-1.6-1 0-1.1 0.8-1.1 2.7s0.2 2.7 1.1 2.7c0.7 0 1-0.5 1-1.8h1.9c0 2.1-0.8 3.1-3 3.1-2 0-3-1-3-4.1 0-3.2 1.3-4.1 3.1-4.1s2.8 1.1 2.8 3h-1.9v0.1z"/>
			<path d="m337.8 352.1c2.4-0.1 3 1.4 3 4.1s-0.8 4.1-3 4.1c-2.4 0.1-3-1.4-3-4.1-0.1-2.7 0.7-4.1 3-4.1zm0 6.8c0.8 0 1.1-0.8 1.1-2.7s-0.2-2.7-1.1-2.7c-1 0-1.1 1.1-1.1 2.7 0 1.5 0 2.7 1.1 2.7z"/>
			<path d="m341.9 352.3h1.9v0.8c0.5-0.7 1.1-1 1.9-1 0.9 0 1.6 0.4 1.8 1.2 0.3-0.8 1-1.2 1.9-1.2 1.3 0 1.9 0.8 1.9 2.3v5.6h-2v-5.4c0-0.7-0.2-1-0.8-1s-1 0.4-1 1.3v5.1h-2v-5.4c0-0.7-0.2-1-0.8-1s-1 0.4-1 1.3v5.1h-2v-7.7h0.2z"/>
		</g>
		<g fill="#0065B1">
			<polygon points="302.9 336.5 301.1 342 305.9 338.8 321.3 328.3 309 318.9"/>
			<polygon points="394.1 238.1 388 233.4 384.3 230.5 382.6 229.3 378.8 234.2 374.9 231.3 316.5 307.9 311.7 314.2 311.1 315.9 323.5 325.4 324.9 324.5 329.8 318 388.2 241.4 384.3 238.4 386 236.1 392.1 240.8 367.3 273.2 370.1 275.3 394.8 242.9 396.9 240.1"/>
		</g>
		<path d="m299.1 341.7c-0.4-1.1-1-2.1-2-2.5-1.2-0.6-2.6-0.4-3.8 0.1-2.2 0.8-4.1 2.3-6 3.7-1-1.7-2.4-3.4-4.3-3.9-0.7-0.1-1.6-0.1-2.4 0.1-0.2-0.8-0.4-1.5-0.8-2.2-0.8-1.2-2-1.9-3.4-2.1-1.5-0.1-2.9 0.4-4.2 1.1 0.5-1.9 0.8-3.8 0.6-5.7-0.1-0.5-0.4-0.9-1-0.9-1.5 0-2.9 0.8-4.1 1.7-1.3 1-2.5 2.1-3.6 3.3-1.3 1.3-2.8 2.4-4.2 3.6-0.2 0.2-0.4 0.4-0.6 0.5-0.9 1.8-1.8 3.6-2.5 5.4 0.2-0.1 0.5-0.2 0.6-0.4 1-1.6 2.4-2.9 3.8-4.2 1.3-1.1 2.8-2.2 4-3.4 1-1.1 2.1-2.1 3.2-3 0.7-0.6 1.6-1.2 2.5-1.5 0 2.2-0.7 4.5-1.3 6.6-0.2 0.2-0.4 0.5-0.7 0.7-2.3 2.7-3.6 6.8-0.8 9.6 0.5 0.5 1.4 0.2 1.6-0.4 0.4-1.6 0.7-3.1 0.8-4.8l0.3-2.4c0.1-0.5 0.2-1.1 0.4-1.6l0.1-0.1 0.4-0.4c0.2-0.2 0.1-0.1 0.3-0.2l0.9-0.6c0.7-0.4 1-0.5 1.7-0.8 0.1-0.1 0.3-0.1 0.4-0.1s0.3-0.1 0.3-0.1c0.3-0.1 0.5-0.1 0.8-0.1h0.1c0.1 0 0.2 0.1 0.4 0.1 0.1 0 0.2 0.1 0.2 0.1-0.1 0 0.2 0.1 0.2 0.1 0.1 0.1 0.1 0.1 0.2 0.1l0.2 0.2 0.2 0.2c-0.1-0.1 0.2 0.2 0.2 0.3 0.1 0.1 0.1 0.2 0.2 0.4l0.1 0.1c0 0.1 0.1 0.1 0.1 0.2 0.1 0.4 0.2 0.7 0.3 1 0.1 0.2 0.1 0.5 0.1 0.7-0.3 0.7-0.2 1.5 0.1 2.2 0.4 1 1.8 0.8 1.9-0.3v-1.3c0.1 0 0.1-0.1 0.2-0.1 0.6-0.2 1.5-0.2 2.1 0.1 1.5 0.7 2.4 2.4 3.1 3.7 0.2 0.4 0.9 0.6 1.3 0.3 1.9-1.3 3.8-2.8 5.9-3.9 0.5-0.2 1-0.4 1.5-0.5 0.4-0.1 0.8-0.1 1.1 0.1 0.1 0 0.2 0.1 0.4 0.2l0.2 0.2 0.2 0.2c0.4 0.5 0.5 1.1 0.7 1.8 0.1 0.3 0.4 0.6 0.7 0.7 1.1 0.2 1.9 0.1 2.3-1.1 0.5-0.6-0.5-1.1-1.2-0.8zm-30.6 3.3c-0.1-0.3 0-0.6 0-0.9 0 0.1 0.1-0.3 0.1-0.4 0-0.2 0.1-0.3 0.1-0.5 0.1-0.2 0.1-0.3 0.1-0.5 0-0.1 0-0.1 0.1-0.1-0.2 0.8-0.3 1.6-0.4 2.4z" fill="#231F20"/>
			<path d="m256.1 206.8h6l0.9 11.9v10.5h-7.7v-10.5l0.8-11.9zm6.8-9.2v7h-7.5v-7h7.5z"/>
			<path d="m276.4 190.1v25h10.2v6.8h-18.5v-31.8h8.3z"/>
			<path d="m304.4 190.1l7.7 31.8h-8.8l-0.8-5.6h-6.6l-0.8 5.6h-8.7l7.6-31.8h10.4zm-5.3 6.5l-2.3 13.5h4.7l-2.4-13.5z"/>
			<path d="m325.8 198.5c0-1-0.2-1.8-0.6-2.4-0.4-0.7-1-1-1.8-1-0.9 0-1.6 0.3-1.9 0.8-0.4 0.6-0.6 1.2-0.6 1.9 0 1 0.4 1.9 1 2.5 0.7 0.6 1.5 1.1 2.5 1.6 1 0.4 2.1 0.9 3.3 1.3 1.1 0.5 2.2 1.1 3.3 1.8 1 0.7 1.9 1.7 2.5 2.9s1 2.8 1 4.7c0 3.4-1 5.9-2.9 7.4s-4.7 2.3-8.3 2.3c-1.7 0-3.3-0.1-4.5-0.4-1.3-0.3-2.4-0.8-3.3-1.5s-1.6-1.6-2.1-2.7-0.7-2.5-0.7-4.2v-1.1h8v0.8c0 1.4 0.2 2.3 0.8 2.8 0.5 0.5 1.1 0.8 1.9 0.8s1.5-0.3 2-0.9 0.7-1.3 0.7-2.2c0-1-0.3-1.9-1-2.5s-1.5-1.1-2.4-1.6c-1-0.4-2-0.8-3.1-1.3-1.1-0.4-2.2-1-3.1-1.8-1-0.7-1.8-1.6-2.4-2.8-0.7-1.1-1-2.7-1-4.5 0-3.2 0.8-5.7 2.6-7.4 1.7-1.7 4.4-2.5 7.9-2.5 3.6 0 6.2 0.8 7.9 2.4 1.6 1.6 2.4 4.1 2.4 7.4h-7.9v-0.8h-0.2z"/>
			<path d="m202.7 270.1l3.6 26.2h0.1l3.6-26.2h9.6l-7.5 34.8h-11.7l-7.4-34.8h9.7z"/>
			<path d="m230 270.1v34.8h-9.1v-34.8h9.1z"/>
			<path d="m240.8 270.1l3.6 26.2h0.1l3.6-26.2h9.6l-7.5 34.8h-11.7l-7.4-34.8h9.7z"/>
			<path d="m274.5 270.1l8.5 34.8h-9.6l-0.9-6.1h-7.2l-0.9 6.1h-9.5l8.3-34.8h11.3zm-5.7 7l-2.5 14.8h5.1l-2.5-14.8h-0.1z"/>
			<path d="m298.1 279.3c0-1-0.2-1.9-0.6-2.7-0.4-0.7-1.1-1.1-1.9-1.1-1 0-1.7 0.3-2.1 1-0.5 0.6-0.7 1.3-0.7 2.1 0 1.1 0.4 2.1 1.1 2.7 0.7 0.7 1.6 1.3 2.7 1.8s2.3 1 3.6 1.5 2.5 1.1 3.6 2c1.1 0.8 2 1.9 2.8 3.2 0.7 1.3 1.1 3 1.1 5.1 0 3.7-1 6.4-3.1 8-2.1 1.7-5.1 2.5-9.1 2.5-1.9 0-3.6-0.2-5-0.5-1.5-0.3-2.7-0.8-3.6-1.6-1-0.8-1.8-1.8-2.2-3-0.5-1.2-0.8-2.8-0.8-4.6v-1.2h8.8v0.8c0 1.5 0.3 2.5 0.8 3.1s1.3 0.9 2.1 0.9c1 0 1.7-0.3 2.2-1s0.7-1.5 0.7-2.4c0-1.1-0.4-2.1-1-2.7-0.7-0.7-1.6-1.2-2.6-1.7s-2.2-1-3.4-1.5c-1.2-0.5-2.4-1.1-3.4-1.9s-1.9-1.8-2.6-3.1-1-2.9-1-5c0-3.6 1-6.2 2.8-8.1 1.9-1.9 4.7-2.8 8.6-2.8s6.8 0.8 8.6 2.5 2.7 4.4 2.7 8.2h-8.5v-0.8h-0.6z"/>
			<path d="m312 270.1h8.5v11.6l-1 13.1h-6.5l-0.9-13.1v-11.6zm8.3 27v7.7h-8.2v-7.7h8.2z"/>
			<path d="m181.9 263.4c-0.3 0.1-0.7 0.1-1 0.1-0.3 0.1-0.7 0.1-1 0.1h-0.7c-1.9 0-3.6-0.2-4.9-0.8-1.3-0.5-2.4-1.4-3.2-2.6s-1.4-2.8-1.8-4.7c-0.4-1.9-0.5-4.2-0.5-7 0-2.7 0.2-5 0.5-7 0.4-1.9 0.9-3.5 1.8-4.7 0.8-1.2 1.9-2.1 3.2-2.7 1.3-0.5 3-0.8 4.9-0.8s3.6 0.3 4.9 0.8 2.4 1.5 3.2 2.7 1.4 2.8 1.8 4.7 0.5 4.2 0.5 7-0.2 5.1-0.5 7.1-1 3.5-1.9 4.7l3.5 3.5-4.5 3.9-4.3-4.3zm-5.2-10c0.1 1.3 0.2 2.3 0.4 3.1s0.4 1.3 0.8 1.6c0.4 0.3 0.8 0.4 1.4 0.4 0.5 0 1-0.1 1.4-0.4s0.6-0.8 0.8-1.6 0.3-1.8 0.4-3.1 0.1-2.9 0.1-4.9c0-1.9 0-3.6-0.1-4.9s-0.2-2.3-0.4-3.1-0.4-1.3-0.8-1.6-0.8-0.4-1.4-0.4c-0.5 0-1 0.1-1.4 0.4s-0.6 0.8-0.8 1.6-0.3 1.8-0.4 3.1-0.1 2.9-0.1 4.9 0 3.7 0.1 4.9z"/>
			<path d="m199.5 255c0 1.4 0.2 2.4 0.6 2.8 0.4 0.5 1 0.7 1.7 0.7s1.3-0.2 1.7-0.7c0.4-0.5 0.6-1.4 0.6-2.8v-21h7.6v19.1c0 2.1-0.2 3.8-0.7 5.1-0.4 1.3-1.1 2.4-1.9 3.3-0.8 0.8-1.9 1.4-3.1 1.7s-2.7 0.4-4.2 0.4c-1.6 0-3-0.1-4.2-0.4s-2.3-0.8-3.1-1.7c-0.8-0.8-1.5-1.9-1.9-3.3-0.4-1.3-0.7-3.1-0.7-5.1v-19.1h7.6v21z"/>
			<path d="m232.2 234v6.2h-9.7v5h9.1v5.9h-9.1v5.8h10v6.2h-17.6v-29.1h17.3z"/>
			<path d="m247.2 234c1.5 0 2.7 0.2 3.7 0.5 1 0.4 1.9 0.9 2.5 1.6 0.7 0.7 1.1 1.5 1.4 2.5s0.4 2 0.4 3.1c0 1.9-0.4 3.5-1.2 4.7s-2.1 1.9-3.8 2.2v0.1c1.8 0.2 3.1 0.8 3.8 1.9s1 2.7 1 4.6v3.7c0 0.4 0 0.8 0.1 1.1 0 0.4 0.1 0.7 0.1 1 0.1 0.3 0.1 0.5 0.2 0.7s0.2 0.3 0.3 0.5c0.1 0.1 0.3 0.3 0.5 0.4v0.4h-8c-0.2-0.4-0.4-0.8-0.4-1.3-0.1-0.5-0.2-1-0.2-1.6-0.1-0.5-0.1-1-0.1-1.5v-3c0-0.8-0.1-1.5-0.1-2.1-0.1-0.5-0.2-1-0.4-1.3s-0.5-0.5-0.8-0.7c-0.3-0.1-0.7-0.2-1.1-0.2h-2v11.7h-7.6v-29h11.7zm-2.8 12.3c1.1 0 1.9-0.3 2.4-1s0.8-1.5 0.8-2.5c0-1.2-0.2-2.1-0.7-2.6s-1.3-0.8-2.5-0.8h-1.4v6.8h1.4z"/>
			<path d="m276 234v6.2h-9.7v5h9.1v5.9h-9.1v5.8h10v6.2h-17.6v-29.1h17.3z"/>
			<path d="m289.7 234l3.1 17.2h0.1l3.1-17.2h10.8v29.1h-7.1v-21.7h-0.1l-4.1 21.7h-5.4l-4.1-21.7v21.7h-7.1v-29.1h10.8z"/>
			<path d="m309.7 241.6c0.4-1.9 0.9-3.5 1.8-4.7 0.8-1.2 1.9-2.1 3.2-2.7 1.3-0.5 3-0.8 4.9-0.8s3.6 0.3 4.9 0.8c1.3 0.5 2.4 1.5 3.2 2.7s1.4 2.8 1.8 4.7c0.4 1.9 0.5 4.2 0.5 7s-0.2 5-0.5 7c-0.4 1.9-1 3.5-1.8 4.7s-1.9 2.1-3.2 2.6c-1.3 0.5-3 0.8-4.9 0.8s-3.6-0.2-4.9-0.8-2.4-1.4-3.2-2.6c-0.8-1.2-1.4-2.8-1.8-4.7s-0.5-4.2-0.5-7c-0.1-2.7 0.1-5 0.5-7zm7.4 11.8c0.1 1.3 0.2 2.3 0.4 3.1s0.4 1.3 0.8 1.6c0.4 0.3 0.8 0.4 1.4 0.4 0.5 0 1-0.1 1.4-0.4s0.6-0.8 0.8-1.6 0.3-1.8 0.4-3.1 0.1-2.9 0.1-4.9c0-1.9 0-3.6-0.1-4.9s-0.2-2.3-0.4-3.1-0.4-1.3-0.8-1.6c-0.4-0.3-0.8-0.4-1.4-0.4-0.5 0-1 0.1-1.4 0.4s-0.6 0.8-0.8 1.6-0.3 1.8-0.4 3.1-0.1 2.9-0.1 4.9 0 3.7 0.1 4.9z"/>
			<path d="m344 241.7c0-0.8-0.2-1.6-0.5-2.2s-0.9-0.9-1.6-0.9c-0.8 0-1.4 0.2-1.8 0.8-0.4 0.5-0.5 1.1-0.5 1.8 0 1 0.3 1.7 0.9 2.2s1.4 1 2.3 1.5c0.9 0.4 1.9 0.8 3 1.3 1.1 0.4 2.1 1 3 1.6 0.9 0.7 1.7 1.6 2.3 2.7s0.9 2.5 0.9 4.3c0 3.1-0.9 5.3-2.7 6.8-1.8 1.4-4.3 2.1-7.7 2.1-1.6 0-3-0.1-4.2-0.4s-2.2-0.7-3.1-1.3c-0.8-0.7-1.5-1.5-1.9-2.5s-0.7-2.3-0.7-3.8v-1h7.3v0.7c0 1.3 0.2 2.1 0.7 2.6s1.1 0.7 1.8 0.7c0.8 0 1.4-0.2 1.8-0.8 0.4-0.5 0.6-1.2 0.6-2 0-1-0.3-1.7-0.9-2.2s-1.3-1-2.2-1.5c-0.9-0.4-1.8-0.8-2.9-1.2-1-0.4-2-1-2.9-1.6-0.9-0.7-1.6-1.5-2.2-2.5-0.6-1.1-0.8-2.4-0.8-4.2 0-3 0.8-5.2 2.4-6.8s4-2.3 7.2-2.3c3.3 0 5.7 0.7 7.2 2.1 1.5 1.5 2.2 3.7 2.2 6.8h-7.1v-0.7h0.1z"/>
		<g fill="#0065B1">
				<path d="m175.5 193.3v2.9h-4.5v2.3h4.2v2.8h-4.2v5.6h-3.5v-13.5l8-0.1z"/>
				<path d="m180 193.3v13.5h-3.5v-13.5h3.5z"/>
				<path d="m187 193.3c0.7 0 1.2 0.1 1.7 0.2 0.5 0.2 0.8 0.4 1.1 0.7s0.5 0.7 0.7 1.1c0.1 0.4 0.2 0.9 0.2 1.5 0 0.9-0.2 1.6-0.5 2.2-0.4 0.5-1 0.9-1.8 1v0.1c0.8 0.1 1.5 0.4 1.8 0.9s0.5 1.2 0.5 2.1v2.1c0 0.2 0.1 0.3 0.1 0.5 0 0.1 0.1 0.2 0.1 0.3l0.2 0.2 0.2 0.2v0.2h-3.8c-0.1-0.2-0.2-0.4-0.2-0.6-0.1-0.2-0.1-0.5-0.1-0.7s-0.1-0.5-0.1-0.7v-1.4c0-0.4 0-0.7-0.1-1-0.1-0.2-0.1-0.4-0.2-0.6-0.1-0.1-0.2-0.2-0.4-0.3-0.1-0.1-0.3-0.1-0.5-0.1h-0.9v5.4h-3.6v-13.5l5.6 0.2zm-1.3 5.7c0.5 0 0.8-0.1 1.1-0.4 0.2-0.3 0.4-0.7 0.4-1.1 0-0.5-0.1-1-0.4-1.2-0.2-0.2-0.6-0.4-1.1-0.4h-0.7v3.2l0.7-0.1z"/>
				<path d="m197.3 193.3l1.4 8h0.1l1.4-8h5v13.5h-3.3v-10h-0.1l-1.9 10h-2.5l-1.9-10h-0.1v10h-3.3v-13.5h5.2z"/>
				<path d="m213.3 193.3l3.3 13.5h-3.8l-0.4-2.4h-2.8l-0.4 2.4h-3.6l3.2-13.5h4.5zm-2.2 2.8l-1 5.7h2l-1-5.7z"/>
				<path d="m222.1 193.3l1.4 8h0.1l1.4-8h5v13.5h-3.3v-10h-0.1l-1.9 10h-2.5l-1.9-10h-0.1v10h-3.2v-13.5h5.1z"/>
				<path d="m231.4 196.8c0.2-0.9 0.4-1.6 0.8-2.2 0.4-0.5 0.8-1 1.5-1.2 0.6-0.2 1.4-0.4 2.3-0.4s1.6 0.1 2.3 0.4c0.6 0.2 1.1 0.7 1.5 1.2s0.7 1.3 0.8 2.2c0.2 0.9 0.2 1.9 0.2 3.2s-0.1 2.4-0.2 3.2c-0.2 0.9-0.4 1.6-0.8 2.2-0.4 0.5-0.8 1-1.5 1.2-0.6 0.2-1.4 0.4-2.3 0.4s-1.6-0.1-2.3-0.4c-0.6-0.2-1.1-0.7-1.5-1.2s-0.7-1.3-0.8-2.2c-0.2-0.9-0.2-1.9-0.2-3.2 0-1.2 0-2.3 0.2-3.2zm3.5 5.5c0 0.6 0.1 1.1 0.2 1.5s0.2 0.6 0.4 0.7 0.4 0.2 0.6 0.2 0.5-0.1 0.6-0.2c0.2-0.1 0.3-0.4 0.4-0.7s0.1-0.8 0.2-1.5c0-0.6 0.1-1.3 0.1-2.2s0-1.6-0.1-2.2c0-0.6-0.1-1.1-0.2-1.5s-0.2-0.6-0.4-0.7-0.4-0.2-0.6-0.2-0.5 0.1-0.6 0.2c-0.2 0.1-0.3 0.4-0.4 0.7s-0.1 0.8-0.2 1.5c0 0.6-0.1 1.3-0.1 2.2s0 1.6 0.1 2.2z"/>
				<path d="m247.3 196.9c0-0.4-0.1-0.7-0.2-1-0.2-0.3-0.4-0.4-0.8-0.4s-0.7 0.1-0.8 0.4c-0.2 0.2-0.2 0.5-0.2 0.8 0 0.4 0.1 0.8 0.4 1s0.7 0.5 1.1 0.7 0.9 0.4 1.4 0.6c0.5 0.2 1 0.4 1.4 0.8 0.4 0.3 0.8 0.7 1.1 1.2s0.4 1.1 0.4 2c0 1.5-0.4 2.5-1.2 3.1-0.8 0.7-2 1-3.6 1-0.7 0-1.4-0.1-1.9-0.2s-1-0.3-1.4-0.6-0.7-0.7-0.9-1.1c-0.2-0.5-0.3-1.1-0.3-1.8v-0.5h3.4v0.3c0 0.6 0.1 1 0.3 1.2s0.5 0.4 0.8 0.4c0.4 0 0.7-0.1 0.8-0.4 0.2-0.2 0.3-0.5 0.3-0.9s-0.1-0.8-0.4-1c-0.2-0.2-0.6-0.5-1-0.7s-0.8-0.4-1.3-0.5-0.9-0.4-1.3-0.7-0.7-0.7-1-1.2c-0.2-0.5-0.4-1.1-0.4-1.9 0-1.4 0.4-2.4 1.1-3.1s1.8-1.1 3.3-1.1c1.5 0 2.7 0.3 3.3 1s1 1.7 1 3.1h-3.3l-0.1-0.5z"/>
				<path d="m190.4 209.7c0.7 0 1.3 0.1 1.8 0.3s0.9 0.5 1.2 0.9 0.5 0.8 0.7 1.3 0.2 1 0.2 1.6c0 1.4-0.4 2.4-1.1 3.1s-1.9 1-3.3 1h-1.2v5.1h-3.5v-13.5l5.2 0.2zm-1 5.8c0.4 0 0.8-0.1 1-0.4 0.2-0.2 0.4-0.7 0.4-1.3 0-1.1-0.5-1.6-1.4-1.6h-0.7v3.3h0.7z"/>
				<path d="m195.3 213.2c0.2-0.9 0.4-1.6 0.8-2.2 0.4-0.5 0.8-1 1.5-1.2 0.6-0.2 1.4-0.4 2.3-0.4s1.6 0.1 2.3 0.4c0.6 0.2 1.1 0.7 1.5 1.2s0.7 1.3 0.8 2.2c0.2 0.9 0.2 1.9 0.2 3.2s-0.1 2.4-0.2 3.2c-0.2 0.9-0.4 1.6-0.8 2.2-0.4 0.5-0.8 1-1.5 1.2-0.6 0.2-1.4 0.4-2.3 0.4s-1.6-0.1-2.3-0.4c-0.6-0.2-1.1-0.7-1.5-1.2s-0.7-1.3-0.8-2.2c-0.2-0.9-0.2-1.9-0.2-3.2-0.1-1.2 0.1-2.3 0.2-3.2zm3.4 5.5c0 0.6 0.1 1.1 0.2 1.5s0.2 0.6 0.4 0.7 0.4 0.2 0.6 0.2c0.2 0 0.5-0.1 0.6-0.2 0.2-0.1 0.3-0.4 0.4-0.7 0.1-0.4 0.1-0.8 0.2-1.5 0-0.6 0.1-1.3 0.1-2.2s0-1.6-0.1-2.2c0-0.6-0.1-1.1-0.2-1.5s-0.2-0.6-0.4-0.7-0.4-0.2-0.6-0.2-0.5 0.1-0.6 0.2c-0.2 0.1-0.3 0.4-0.4 0.7-0.1 0.4-0.1 0.8-0.2 1.5 0 0.6-0.1 1.3-0.1 2.2s0.1 1.6 0.1 2.2z"/>
				<path d="m211.5 209.7c0.7 0 1.2 0.1 1.7 0.2 0.5 0.2 0.8 0.4 1.1 0.7s0.5 0.7 0.7 1.1c0.1 0.4 0.2 0.9 0.2 1.5 0 0.9-0.2 1.6-0.5 2.2-0.4 0.5-1 0.9-1.8 1v0.1c0.8 0.1 1.5 0.4 1.8 0.9s0.5 1.2 0.5 2.1v2.1s0.1 0.3 0.1 0.5c0 0.1 0.1 0.2 0.1 0.3l0.2 0.2 0.2 0.2v0.2h-3.8c-0.1-0.2-0.2-0.4-0.2-0.6-0.1-0.2-0.1-0.5-0.1-0.7s-0.1-0.5-0.1-0.7v-1.4c0-0.4 0-0.7-0.1-1-0.1-0.2-0.1-0.4-0.2-0.6-0.1-0.1-0.2-0.2-0.4-0.3-0.1-0.1-0.3-0.1-0.5-0.1h-0.9v5.4h-3.5v-13.5l5.5 0.2zm-1.3 5.7c0.5 0 0.8-0.1 1.1-0.4 0.2-0.3 0.4-0.7 0.4-1.1 0-0.5-0.1-1-0.4-1.2-0.2-0.2-0.6-0.4-1.1-0.4h-0.7v3.2l0.7-0.1z"/>
				<path d="m222.5 223.3c-0.2 0-0.3 0.1-0.4 0.1s-0.3 0-0.5 0h-0.4c-0.9 0-1.6-0.1-2.3-0.4-0.6-0.2-1.1-0.7-1.5-1.2s-0.7-1.3-0.8-2.2c-0.2-0.9-0.2-1.9-0.2-3.2s0.1-2.4 0.2-3.2c0.2-0.9 0.4-1.6 0.8-2.2 0.4-0.5 0.8-1 1.5-1.2 0.6-0.2 1.4-0.4 2.3-0.4s1.6 0.1 2.3 0.4c0.6 0.2 1.1 0.7 1.5 1.2s0.7 1.3 0.8 2.2c0.2 0.9 0.2 1.9 0.2 3.2s-0.1 2.4-0.2 3.3c-0.2 0.9-0.5 1.6-0.8 2.2l1.6 1.6-2.1 1.8-2-2zm-2.4-4.6c0 0.6 0.1 1.1 0.2 1.5s0.2 0.6 0.4 0.7 0.4 0.2 0.6 0.2 0.5-0.1 0.6-0.2c0.2-0.1 0.3-0.4 0.4-0.7 0.1-0.4 0.1-0.8 0.2-1.5 0-0.6 0.1-1.3 0.1-2.2s0-1.6-0.1-2.2c0-0.6-0.1-1.1-0.2-1.5s-0.2-0.6-0.4-0.7-0.4-0.2-0.6-0.2-0.5 0.1-0.6 0.2c-0.2 0.1-0.3 0.4-0.4 0.7-0.1 0.4-0.1 0.8-0.2 1.5 0 0.6-0.1 1.3-0.1 2.2 0.1 0.9 0.1 1.6 0.1 2.2z"/>
				<path d="m230.7 219.4c0 0.7 0.1 1.1 0.3 1.3s0.4 0.3 0.8 0.3c0.3 0 0.6-0.1 0.8-0.3s0.3-0.7 0.3-1.3v-9.7h3.5v8.8c0 1-0.1 1.8-0.3 2.4s-0.5 1.1-0.9 1.5c-0.4 0.4-0.8 0.7-1.5 0.8-0.5 0.1-1.2 0.2-2 0.2-0.7 0-1.4-0.1-1.9-0.2s-1-0.4-1.5-0.8c-0.4-0.4-0.7-0.9-0.9-1.5s-0.3-1.4-0.3-2.4v-8.8h3.5l0.1 9.7z"/>
				<path d="m245.9 209.7v2.9h-4.5v2.3h4.2v2.8h-4.2v2.7h4.7v2.9h-8.2v-13.5l8-0.1z"/>
				<path d="m250.5 213v3.8h-3.2v-3.8h3.2zm0 6.4v3.8h-3.2v-3.8h3.2z"/>
		</g>
</svg>
