<?xml version="1.0" encoding="UTF-8" standalone="no"?>
<!-- Generator: Adobe Illustrator 18.0.0, SVG Export Plug-In . SVG Version: 6.00 Build 0)  -->
<!DOCTYPE svg  PUBLIC '-//W3C//DTD SVG 1.1//EN'  'http://www.w3.org/Graphics/SVG/1.1/DTD/svg11.dtd'>
<svg id="Layer_1" xmlns="http://www.w3.org/2000/svg" xml:space="preserve" viewBox="0 0 500 500" version="1.1" y="0px" x="0px" xmlns:xlink="http://www.w3.org/1999/xlink" enable-background="new 0 0 500 500">
<g fill="#fff">
	<path d="m122.1 285.5l-4.9 40 37.1-34.9c2.5-2.4 5.8-3.4 9-3 2.9 0.3 5.8 0.6 8.6 0.7h1v22.7l-2.3-0.1c-1.6-0.1-3.1-0.2-4.6-0.3l-55.7 52.3c-2.4 2.5-5.9 3.9-9.6 3.5-6.2-0.8-10.6-6.4-9.9-12.6l7.8-63.4c-18.1-10.1-33.3-23.6-44.2-39.3-12.2-17.5-19.1-37.7-19.1-59.4 0-33.5 16.6-63.6 43.5-85.3 26.2-21.1 62.2-34.2 101.8-34.2s75.6 13.1 101.8 34.2c16.8 13.6 29.6 30.5 36.8 49.4h-24.8c-6.1-11.9-15-22.7-26.2-31.8-22.3-18-53.3-29.2-87.6-29.2s-65.3 11.1-87.6 29.2c-21.6 17.5-35 41.4-35 67.7 0 16.8 5.5 32.7 15 46.4 10.2 14.7 25 27 42.8 35.8 4.5 2.2 6.9 6.9 6.3 11.6z"/>
	<path clip-rule="evenodd" d="m379.5 364.7l6 50.4c0.7 6.2-3.7 11.9-9.9 12.6-3.7 0.4-7.1-0.9-9.5-3.4l-63.4-59.5h-73.8c-25.1 0-45.7-20.6-45.7-45.7v-107.3c0-25.1 20.6-45.7 45.7-45.7h190.1c25.1 0 45.7 20.5 45.7 45.7v107.3c0 25.1-20.6 45.7-45.7 45.7h-39.5v-0.1zm-115.5-113.1c10.3 0 18.6 8.3 18.6 18.6s-8.3 18.6-18.6 18.6-18.6-8.3-18.6-18.6 8.3-18.6 18.6-18.6zm59.9 0c10.3 0 18.6 8.3 18.6 18.6s-8.3 18.6-18.6 18.6-18.6-8.3-18.6-18.6c0.1-10.3 8.4-18.6 18.6-18.6zm60 0c10.3 0 18.6 8.3 18.6 18.6s-8.3 18.6-18.6 18.6-18.6-8.3-18.6-18.6c0-10.3 8.3-18.6 18.6-18.6z" fill-rule="evenodd"/>
</g>
</svg>
