<?xml version="1.0" encoding="utf-8"?>
<!-- Generator: Adobe Illustrator 18.0.0, SVG Export Plug-In . SVG Version: 6.00 Build 0)  -->
<!DOCTYPE svg PUBLIC "-//W3C//DTD SVG 1.1//EN" "http://www.w3.org/Graphics/SVG/1.1/DTD/svg11.dtd">
<svg version="1.1" id="Layer_1" xmlns="http://www.w3.org/2000/svg" xmlns:xlink="http://www.w3.org/1999/xlink" x="0px" y="0px"
	 viewBox="0 0 500 500" enable-background="new 0 0 500 500" xml:space="preserve">
<g>
	<path fill="#FFFFFF" d="M490.7,100.7c-17.7,7.9-36.8,13.2-56.7,15.6c20.4-12.2,36.1-31.6,43.4-54.7c-19.1,11.3-40.2,19.5-62.7,24
		c-18-19.2-43.7-31.2-72.1-31.2c-54.6,0-98.8,44.2-98.8,98.8c0,7.7,0.9,15.3,2.6,22.5c-82.1-4.1-154.9-43.4-203.6-103.2
		C34.3,87,29.4,104,29.4,122.1c0,34.3,17.4,64.5,43.9,82.2c-16.2-0.5-31.4-5-44.7-12.4c0,0.4,0,0.8,0,1.2
		c0,47.9,34.1,87.8,79.2,96.9c-8.3,2.3-17,3.5-26,3.5c-6.4,0-12.6-0.6-18.6-1.8c12.6,39.2,49.1,67.8,92.3,68.6
		c-33.8,26.5-76.4,42.3-122.7,42.3c-8,0-15.8-0.5-23.6-1.4c43.7,28,95.6,44.4,151.4,44.4c181.7,0,281.1-150.5,281.1-281.1
		c0-4.3-0.1-8.5-0.3-12.8C460.8,137.9,477.5,120.5,490.7,100.7z"/>
</g>
</svg>
